<svg xmlns="http://www.w3.org/2000/svg" width="41" height="41" viewBox="0 0 41 41" fill="none">
  <g opacity="0.2">
    <path
      d="M11.2083 34.653C9.10723 34.653 7.28202 34.2065 5.73251 33.3136C4.18301 32.4207 2.97493 31.147 2.10826 29.4924C1.26786 27.8379 0.847656 25.8944 0.847656 23.6621C0.847656 21.2722 1.21533 19.0268 1.95069 16.9258C2.68604 14.8247 3.69715 12.9732 4.98402 11.3712C6.27089 9.76919 7.76784 8.52172 9.47493 7.62879C11.2083 6.7096 13.0335 6.25 14.9507 6.25C17.078 6.25 18.9032 6.7096 20.4264 7.62879C21.976 8.52172 23.184 9.79545 24.0507 11.45C24.9174 13.0783 25.3507 15.0086 25.3507 17.2409C25.3507 19.6308 24.983 21.8894 24.2477 24.0167C23.5123 26.1177 22.4881 27.9692 21.1749 29.5712C19.8881 31.147 18.3911 32.3944 16.684 33.3136C14.9769 34.2065 13.1517 34.653 11.2083 34.653ZM11.7204 30.0045C12.876 30.0045 13.9527 29.6762 14.9507 29.0197C15.9749 28.3632 16.8678 27.4702 17.6295 26.3409C18.4174 25.1853 19.0345 23.8591 19.481 22.3621C19.9275 20.8652 20.1507 19.2632 20.1507 17.5561C20.1507 15.4813 19.6386 13.853 18.6143 12.6712C17.6163 11.4894 16.2244 10.8985 14.4386 10.8985C13.3093 10.8985 12.2325 11.2268 11.2083 11.8833C10.184 12.5399 9.27796 13.4459 8.49008 14.6015C7.72844 15.7308 7.12444 17.0571 6.67796 18.5803C6.23149 20.0773 6.00826 21.6793 6.00826 23.3864C6.00826 25.4348 6.50725 27.05 7.50523 28.2318C8.52947 29.4136 9.93451 30.0045 11.7204 30.0045Z"
      fill="white" />
    <path
      d="M29.1339 34.2594L33.8218 12.1594L28.0703 14.4048L29.0552 9.67753L36.9339 6.68359H40.2824L34.4127 34.2594H29.1339Z"
      fill="white" />
  </g>
</svg>