<svg xmlns="http://www.w3.org/2000/svg" width="41" height="41" viewBox="0 0 41 41" fill="none">
  <g opacity="0.2">
    <path
      d="M10.2087 32.2986C8.40779 32.2986 6.84327 31.9159 5.51514 31.1505C4.187 30.3852 3.1515 29.2934 2.40864 27.8752C1.6883 26.457 1.32812 24.7912 1.32812 22.8778C1.32812 20.8293 1.64328 18.9047 2.27358 17.1038C2.90388 15.3029 3.77055 13.7159 4.87358 12.3427C5.97661 10.9696 7.25974 9.90031 8.7229 9.13494C10.2086 8.34706 11.7731 7.95312 13.4165 7.95312C15.2398 7.95312 16.8043 8.34706 18.11 9.13494C19.4381 9.90031 20.4736 10.9921 21.2164 12.4103C21.9593 13.806 22.3307 15.4605 22.3307 17.3739C22.3307 19.4224 22.0156 21.3583 21.3853 23.1817C20.755 24.9826 19.877 26.5696 18.7515 27.9427C17.6485 29.2934 16.3653 30.3626 14.9021 31.1505C13.439 31.9159 11.8744 32.2986 10.2087 32.2986ZM10.6476 28.3142C11.6381 28.3142 12.561 28.0328 13.4165 27.47C14.2944 26.9072 15.0597 26.1418 15.7125 25.1739C16.3879 24.1834 16.9169 23.0466 17.2995 21.7635C17.6822 20.4804 17.8736 19.1072 17.8736 17.644C17.8736 15.8657 17.4346 14.47 16.5567 13.457C15.7013 12.444 14.5082 11.9375 12.9775 11.9375C12.0095 11.9375 11.0865 12.2189 10.2087 12.7817C9.3307 13.3444 8.55413 14.1211 7.87875 15.1116C7.22597 16.0795 6.7082 17.2163 6.3255 18.5219C5.94284 19.8051 5.7515 21.1782 5.7515 22.6414C5.7515 24.3973 6.17922 25.7817 7.03459 26.7947C7.91252 27.8077 9.11688 28.3142 10.6476 28.3142Z"
      fill="white" />
    <path
      d="M21.2656 31.9623L21.9072 28.822L33.7929 18.4896C34.7158 17.7017 35.3574 17.0151 35.7176 16.4298C36.1002 15.822 36.2916 15.1918 36.2916 14.5389C36.2916 13.7285 35.9652 13.087 35.3124 12.6143C34.682 12.119 33.8604 11.8714 32.8474 11.8714C31.9245 11.8714 30.979 12.074 30.0111 12.4792C29.0431 12.8844 27.9626 13.5259 26.7695 14.4039L24.8448 11.1961C26.1505 10.1381 27.5236 9.33893 28.9643 8.79867C30.4275 8.25841 31.8794 7.98828 33.3202 7.98828C34.7833 7.98828 36.0552 8.24715 37.1358 8.7649C38.2388 9.26015 39.0942 9.95798 39.702 10.8584C40.3098 11.7363 40.6137 12.7718 40.6137 13.9649C40.6137 14.7978 40.4786 15.5857 40.2085 16.3285C39.9608 17.0714 39.5444 17.803 38.9591 18.5233C38.3738 19.2437 37.5972 20.0091 36.6293 20.8194L27.9851 28.248L38.4526 28.2143L37.6423 31.9623H21.2656Z"
      fill="white" />
  </g>
</svg>