<svg xmlns="http://www.w3.org/2000/svg" width="41" height="41" viewBox="0 0 41 41" fill="none">
  <g opacity="0.2">
    <path
      d="M9.85612 32.2841C8.12277 32.2841 6.61692 31.9157 5.33859 31.1791C4.06026 30.4424 3.06359 29.3916 2.34859 28.0266C1.65526 26.6616 1.30859 25.0582 1.30859 23.2166C1.30859 21.2449 1.61193 19.3924 2.21859 17.6591C2.82526 15.9257 3.65943 14.3982 4.72109 13.0766C5.78276 11.7549 7.01777 10.7257 8.42607 9.98906C9.85607 9.23073 11.3619 8.85156 12.9436 8.85156C14.6986 8.85156 16.2044 9.23073 17.4611 9.98906C18.7394 10.7257 19.7361 11.7766 20.4511 13.1416C21.1661 14.4849 21.5236 16.0774 21.5236 17.9191C21.5236 19.8907 21.2203 21.7541 20.6136 23.5091C20.0069 25.2424 19.1619 26.7699 18.0786 28.0916C17.0169 29.3916 15.7819 30.4207 14.3736 31.1791C12.9653 31.9157 11.4594 32.2841 9.85612 32.2841ZM10.2786 28.4491C11.2319 28.4491 12.1203 28.1782 12.9436 27.6366C13.7886 27.0949 14.5253 26.3582 15.1536 25.4266C15.8036 24.4732 16.3128 23.3791 16.6811 22.1441C17.0494 20.9091 17.2336 19.5874 17.2336 18.1791C17.2336 16.4674 16.8111 15.1241 15.9661 14.1491C15.1428 13.1741 13.9944 12.6866 12.5211 12.6866C11.5894 12.6866 10.7011 12.9574 9.85612 13.4991C9.01107 14.0407 8.26362 14.7882 7.61357 15.7416C6.98527 16.6732 6.48692 17.7674 6.11857 19.0241C5.75026 20.2591 5.56609 21.5807 5.56609 22.9891C5.56609 24.6791 5.97777 26.0116 6.80107 26.9866C7.64607 27.9616 8.80527 28.4491 10.2786 28.4491Z"
      fill="white" />
    <path
      d="M30.3 32.2828C28.5017 32.2828 26.8333 31.8928 25.295 31.1128C23.7783 30.3112 22.5758 29.2387 21.6875 27.8953L24.8075 25.4903C25.6308 26.5737 26.4866 27.3537 27.375 27.8303C28.285 28.307 29.3033 28.5453 30.43 28.5453C31.34 28.5453 32.1417 28.4045 32.835 28.1228C33.5283 27.8195 34.07 27.4078 34.46 26.8878C34.85 26.3462 35.045 25.7503 35.045 25.1003C35.045 24.2553 34.7308 23.5837 34.1025 23.0853C33.4958 22.587 32.6292 22.3378 31.5025 22.3378H29.3575L30.105 18.7953H32.2825C33.0842 18.7953 33.7992 18.6545 34.4275 18.3728C35.0558 18.0912 35.5433 17.7012 35.89 17.2028C36.2583 16.6828 36.4425 16.1087 36.4425 15.4803C36.4425 14.657 36.1175 13.9745 35.4675 13.4328C34.8175 12.8911 33.9291 12.6203 32.8025 12.6203C31.8275 12.6203 30.8742 12.8045 29.9425 13.1728C29.0108 13.5195 28.09 14.0612 27.18 14.7978L25.0675 11.8403C26.1292 10.9086 27.3533 10.1828 28.74 9.66281C30.1483 9.14281 31.5891 8.88281 33.0625 8.88281C34.6225 8.88281 35.9767 9.14281 37.125 9.66281C38.2733 10.1611 39.1617 10.8653 39.79 11.7753C40.44 12.6636 40.765 13.6712 40.765 14.7978C40.765 16.2495 40.2883 17.517 39.335 18.6003C38.4033 19.662 37.125 20.3878 35.5 20.7778C36.6917 21.1462 37.6016 21.7312 38.23 22.5328C38.8583 23.3128 39.1725 24.2553 39.1725 25.3603C39.1725 26.6603 38.7825 27.8412 38.0025 28.9028C37.2225 29.9428 36.1608 30.7662 34.8175 31.3728C33.4958 31.9795 31.99 32.2828 30.3 32.2828Z"
      fill="white" />
  </g>
</svg>