<svg xmlns="http://www.w3.org/2000/svg" width="41" height="41" viewBox="0 0 41 41" fill="none">
  <g opacity="0.2">
    <path
      d="M9.42956 31.3909C7.77875 31.3909 6.34461 31.0401 5.12716 30.3385C3.9097 29.6369 2.96049 28.6361 2.27954 27.3361C1.61922 26.0361 1.28906 24.5091 1.28906 22.7552C1.28906 20.8774 1.57795 19.1131 2.15573 17.4623C2.73351 15.8115 3.52795 14.3567 4.53906 13.098C5.55017 11.8393 6.72637 10.8591 8.06761 10.1576C9.42951 9.43533 10.8637 9.07422 12.37 9.07422C14.0415 9.07422 15.4756 9.43533 16.6724 10.1576C17.8898 10.8591 18.839 11.8599 19.52 13.1599C20.201 14.4393 20.5415 15.956 20.5415 17.7099C20.5415 19.5877 20.2526 21.3623 19.6748 23.0337C19.097 24.6845 18.2922 26.1393 17.2605 27.398C16.2494 28.6361 15.0732 29.6163 13.7319 30.3385C12.3907 31.0401 10.9565 31.3909 9.42956 31.3909ZM9.8319 27.7385C10.7398 27.7385 11.5859 27.4805 12.37 26.9647C13.1748 26.4488 13.8764 25.7472 14.4748 24.8599C15.0938 23.952 15.5788 22.9099 15.9295 21.7337C16.2803 20.5575 16.4558 19.2988 16.4558 17.9575C16.4558 16.3274 16.0533 15.048 15.2486 14.1195C14.4645 13.1909 13.3708 12.7266 11.9676 12.7266C11.0803 12.7266 10.2343 12.9845 9.42956 13.5004C8.62475 14.0163 7.9129 14.7282 7.2938 15.6361C6.69542 16.5234 6.2208 17.5655 5.86999 18.7623C5.51922 19.9385 5.34382 21.1972 5.34382 22.5385C5.34382 24.148 5.7359 25.4171 6.51999 26.3456C7.32475 27.2742 8.42875 27.7385 9.8319 27.7385Z"
      fill="white" />
    <path
      d="M31.9262 31.0807L33.0095 26.0045H21L21.7119 22.5998L35.8881 9.41406H40.6548L37.869 22.445H40.531L39.7571 26.0045H37.1262L36.0429 31.0807H31.9262ZM26.6643 22.445H33.7524L35.5167 14.2426L26.6643 22.445Z"
      fill="white" />
  </g>
</svg>