<svg xmlns="http://www.w3.org/2000/svg" width="301" height="235" viewBox="0 0 301 235" fill="none">
  <path
    d="M186.483 194.062C184.535 196.053 184.57 199.246 186.56 201.193L218.99 232.934C220.98 234.881 224.172 234.847 226.121 232.857C228.068 230.867 228.034 227.675 226.044 225.728L197.217 197.514L225.431 168.686C227.379 166.697 227.345 163.504 225.354 161.557C223.364 159.609 220.172 159.643 218.224 161.633L186.483 194.062ZM5.9163 0.790063C0.885267 0.457418 0.885002 0.461391 0.884705 0.465852C0.884578 0.46798 0.884255 0.47294 0.883988 0.47721C0.883441 0.485765 0.882783 0.496268 0.882039 0.508692C0.880535 0.533549 0.878628 0.566129 0.876433 0.60626C0.872039 0.686518 0.86644 0.797041 0.860454 0.936518C0.848477 1.21543 0.834875 1.61046 0.825991 2.11126C0.808238 3.11241 0.809323 4.53899 0.88039 6.30791C1.02229 9.84027 1.44444 14.7688 2.56575 20.4189C4.79821 31.6677 9.87218 46.1163 21.3718 57.9731C44.8514 82.1818 92.1325 92.9841 185.763 52.782L181.784 43.516C89.1379 83.2956 47.4902 70.4184 28.6105 50.9523C18.9303 40.9717 14.4669 28.5839 12.4569 18.4559C11.457 13.4174 11.0816 9.02229 10.9563 5.90313C10.8937 4.3463 10.8938 3.11515 10.9084 2.29C10.9158 1.87765 10.9267 1.5674 10.9352 1.36933C10.9394 1.2703 10.9431 1.19938 10.9454 1.15784C10.9465 1.13708 10.9473 1.12365 10.9477 1.11774C10.9478 1.11479 10.9479 1.11371 10.9478 1.11454C10.9478 1.11493 10.9477 1.11754 10.9477 1.11774C10.9475 1.12026 10.9473 1.12271 5.9163 0.790063ZM185.763 52.782C232.109 32.8821 259.799 33.1053 274.515 41.9328C288.702 50.4419 293.132 68.6105 288.543 91.4903C284.007 114.108 270.864 139.441 252.864 159.148C234.812 178.911 212.558 192.307 190.033 192.549L190.141 202.631C216.552 202.348 241.263 186.802 260.309 165.949C279.406 145.04 293.495 118.082 298.43 93.4733C303.313 69.1268 299.456 45.1333 279.702 33.285C260.48 21.7549 228.576 23.4249 181.784 43.516L185.763 52.782Z"
    fill="white" />
</svg>