<svg width="525" height="435" viewBox="0 0 525 435" fill="none" xmlns="http://www.w3.org/2000/svg">
<g clip-path="url(#clip0_16096_21247)">
<g clip-path="url(#clip1_16096_21247)">
<g clip-path="url(#clip2_16096_21247)">
<path d="M345.114 250.164C398.345 226.095 453.115 266.442 470.785 183.165C481.337 133.411 460.82 85.935 421.92 51.2499C376.707 10.9137 336.949 0.169722 286.324 35.1689C235.155 70.4936 222.583 76.1911 163.982 69.9238C72.0498 60.0868 -2.46326 185.037 83.9104 256.722C125.888 291.605 189.43 324.22 241.981 325.022C259.85 325.29 284.084 323.104 299.389 311.069C320.744 294.349 316.871 262.884 345.114 250.164Z" fill="#4122FF"/>
<path opacity="0.9" d="M345.114 250.164C398.345 226.095 453.115 266.442 470.785 183.165C481.337 133.411 460.82 85.935 421.92 51.2499C376.707 10.9137 336.949 0.169722 286.324 35.1689C235.155 70.4936 222.583 76.1911 163.982 69.9238C72.0498 60.0868 -2.46326 185.037 83.9104 256.722C125.888 291.605 189.43 324.22 241.981 325.022C259.85 325.29 284.084 323.104 299.389 311.069C320.744 294.349 316.871 262.884 345.114 250.164Z" fill="#EEECFF" fill-opacity="0.6"/>
<path d="M262.532 434.532C374.628 434.532 465.501 428.639 465.501 421.369C465.501 414.1 374.628 408.207 262.532 408.207C150.435 408.207 59.5625 414.1 59.5625 421.369C59.5625 428.639 150.435 434.532 262.532 434.532Z" fill="#8F7CFF" fill-opacity="0.6"/>
<path d="M247.675 406.902H125.27V422.413H247.675V406.902Z" fill="#4122FF"/>
<path opacity="0.3" d="M247.675 406.902H125.27V422.413H247.675V406.902Z" fill="black"/>
<path d="M131.52 409.113H128.453V420.217H131.52V409.113Z" fill="#263238"/>
<path d="M136.903 409.113H133.836V420.217H136.903V409.113Z" fill="#263238"/>
<path d="M142.294 409.113H139.227V420.217H142.294V409.113Z" fill="#263238"/>
<path d="M147.672 409.113H144.605V420.217H147.672V409.113Z" fill="#263238"/>
<path d="M153.055 409.113H149.988V420.217H153.055V409.113Z" fill="#263238"/>
<path d="M158.434 409.113H155.367V420.217H158.434V409.113Z" fill="#263238"/>
<path d="M163.825 409.113H160.758V420.217H163.825V409.113Z" fill="#263238"/>
<path d="M169.208 409.113H166.141V420.217H169.208V409.113Z" fill="#263238"/>
<path d="M174.587 409.113H171.52V420.217H174.587V409.113Z" fill="#263238"/>
<path d="M179.969 409.113H176.902V420.217H179.969V409.113Z" fill="#263238"/>
<path d="M185.348 409.113H182.281V420.217H185.348V409.113Z" fill="#263238"/>
<path d="M190.74 409.113H187.672V420.217H190.74V409.113Z" fill="#263238"/>
<path d="M196.122 409.113H193.055V420.217H196.122V409.113Z" fill="#263238"/>
<path d="M201.501 409.113H198.434V420.217H201.501V409.113Z" fill="#263238"/>
<path d="M206.881 409.113H203.812V420.217H206.881V409.113Z" fill="#263238"/>
<path d="M212.274 409.113H209.207V420.217H212.274V409.113Z" fill="#263238"/>
<path d="M217.654 409.113H214.586V420.217H217.654V409.113Z" fill="#263238"/>
<path d="M223.037 409.113H219.969V420.217H223.037V409.113Z" fill="#263238"/>
<path d="M228.415 409.113H225.348V420.217H228.415V409.113Z" fill="#263238"/>
<path d="M233.805 409.113H230.738V420.217H233.805V409.113Z" fill="#263238"/>
<path d="M239.188 409.113H236.121V420.217H239.188V409.113Z" fill="#263238"/>
<path d="M244.567 409.113H241.5V420.217H244.567V409.113Z" fill="#263238"/>
<path d="M247.688 422.425H266.782V406.914H247.688V422.425Z" fill="#263238"/>
<path d="M247.686 132.781H118.906V406.902H247.686V132.781Z" fill="#4122FF"/>
<path opacity="0.3" d="M247.686 132.781H118.906V406.902H247.686V132.781Z" fill="white"/>
<path d="M264.698 130.434H127.344V132.783H264.698V130.434Z" fill="#263238"/>
<path d="M114.844 260.512H113.797V272.058H114.844V260.512Z" fill="#4122FF"/>
<path d="M114.844 275.941H113.797V305.975H114.844V275.941Z" fill="#4122FF"/>
<path d="M247.676 406.902H273.145V132.781H247.676V406.902Z" fill="#4122FF"/>
<g style="mix-blend-mode:multiply" opacity="0.6">
<path d="M241.258 205.293H125.322C123.431 205.293 121.898 206.995 121.898 209.095V228.699C121.898 230.799 123.431 232.501 125.322 232.501H241.258C243.148 232.501 244.681 230.799 244.681 228.699V209.095C244.681 206.995 243.148 205.293 241.258 205.293Z" fill="#4122FF"/>
</g>
<path opacity="0.2" d="M241.258 205.293H125.322C123.431 205.293 121.898 206.995 121.898 209.095V228.699C121.898 230.799 123.431 232.501 125.322 232.501H241.258C243.148 232.501 244.681 230.799 244.681 228.699V209.095C244.681 206.995 243.148 205.293 241.258 205.293Z" fill="black"/>
<path d="M234.349 215.279L229.398 203.93V233.883H244.734V218.895H239.605C238.511 218.9 237.439 218.564 236.51 217.924C235.581 217.285 234.832 216.368 234.349 215.279Z" fill="#4122FF"/>
<path d="M244.681 136.062H121.898V166.096H244.681V136.062Z" fill="#4122FF"/>
<path opacity="0.2" d="M244.681 136.062H121.898V166.096H244.681V136.062Z" fill="white"/>
<path d="M244.681 373.418H121.898V403.452H244.681V373.418Z" fill="#4122FF"/>
<path opacity="0.2" d="M244.681 373.418H121.898V403.452H244.681V373.418Z" fill="white"/>
<path d="M244.681 339.508H121.898V369.542H244.681V339.508Z" fill="#4122FF"/>
<path opacity="0.2" d="M244.681 339.508H121.898V369.542H244.681V339.508Z" fill="white"/>
<path d="M244.681 305.602H121.898V335.636H244.681V305.602Z" fill="#4122FF"/>
<path opacity="0.2" d="M244.681 305.602H121.898V335.636H244.681V305.602Z" fill="white"/>
<path d="M244.681 271.695H121.898V301.729H244.681V271.695Z" fill="#4122FF"/>
<path opacity="0.2" d="M244.681 271.695H121.898V301.729H244.681V271.695Z" fill="white"/>
<path d="M244.681 237.793H121.898V267.827H244.681V237.793Z" fill="#4122FF"/>
<path opacity="0.2" d="M244.681 237.793H121.898V267.827H244.681V237.793Z" fill="white"/>
<path d="M229.399 203.887H106.617V233.921H229.399V203.887Z" fill="#4122FF"/>
<path opacity="0.2" d="M229.399 203.887H106.617V233.921H229.399V203.887Z" fill="white"/>
<path d="M244.681 169.969H121.898V200.003H244.681V169.969Z" fill="#4122FF"/>
<path opacity="0.2" d="M244.681 169.969H121.898V200.003H244.681V169.969Z" fill="white"/>
<path d="M237.039 140.352H190.361C188.181 140.352 186.414 142.314 186.414 144.735V157.421C186.414 159.842 188.181 161.805 190.361 161.805H237.039C239.218 161.805 240.985 159.842 240.985 157.421V144.735C240.985 142.314 239.218 140.352 237.039 140.352Z" fill="#4122FF"/>
<path opacity="0.2" d="M233.796 151.967V150.2C233.796 149.173 233.047 148.34 232.122 148.34H216.995C216.07 148.34 215.32 149.173 215.32 150.2V151.967C215.32 152.995 216.07 153.828 216.995 153.828H232.122C233.047 153.828 233.796 152.995 233.796 151.967Z" fill="white"/>
<path d="M237.039 174.258H190.361C188.181 174.258 186.414 176.22 186.414 178.641V191.327C186.414 193.748 188.181 195.711 190.361 195.711H237.039C239.218 195.711 240.985 193.748 240.985 191.327V178.641C240.985 176.22 239.218 174.258 237.039 174.258Z" fill="#4122FF"/>
<path opacity="0.2" d="M233.796 185.874V184.107C233.796 183.079 233.047 182.246 232.122 182.246H216.995C216.07 182.246 215.32 183.079 215.32 184.107V185.874C215.32 186.902 216.07 187.735 216.995 187.735H232.122C233.047 187.735 233.796 186.902 233.796 185.874Z" fill="white"/>
<path d="M221.757 208.176H175.079C172.9 208.176 171.133 210.139 171.133 212.56V225.245C171.133 227.666 172.9 229.629 175.079 229.629H221.757C223.937 229.629 225.704 227.666 225.704 225.245V212.56C225.704 210.139 223.937 208.176 221.757 208.176Z" fill="#4122FF"/>
<path opacity="0.2" d="M218.511 219.779V218.012C218.511 216.985 217.761 216.152 216.836 216.152H201.71C200.785 216.152 200.035 216.985 200.035 218.012V219.779C200.035 220.807 200.785 221.64 201.71 221.64H216.836C217.761 221.64 218.511 220.807 218.511 219.779Z" fill="white"/>
<path d="M237.039 242.082H190.361C188.181 242.082 186.414 244.045 186.414 246.466V259.152C186.414 261.573 188.181 263.535 190.361 263.535H237.039C239.218 263.535 240.985 261.573 240.985 259.152V246.466C240.985 244.045 239.218 242.082 237.039 242.082Z" fill="#4122FF"/>
<path opacity="0.2" d="M233.796 253.687V251.92C233.796 250.892 233.047 250.059 232.122 250.059H216.995C216.07 250.059 215.32 250.892 215.32 251.92V253.687C215.32 254.714 216.07 255.547 216.995 255.547H232.122C233.047 255.547 233.796 254.714 233.796 253.687Z" fill="white"/>
<path d="M237.039 275.988H190.361C188.181 275.988 186.414 277.951 186.414 280.372V293.058C186.414 295.479 188.181 297.441 190.361 297.441H237.039C239.218 297.441 240.985 295.479 240.985 293.058V280.372C240.985 277.951 239.218 275.988 237.039 275.988Z" fill="#4122FF"/>
<path opacity="0.2" d="M233.797 287.593V285.826C233.797 284.798 233.047 283.965 232.122 283.965H216.995C216.07 283.965 215.32 284.798 215.32 285.826V287.593C215.32 288.621 216.07 289.454 216.995 289.454H232.122C233.047 289.454 233.797 288.621 233.797 287.593Z" fill="white"/>
<path d="M237.039 309.895H190.361C188.181 309.895 186.414 311.858 186.414 314.279V326.964C186.414 329.385 188.181 331.348 190.361 331.348H237.039C239.218 331.348 240.985 329.385 240.985 326.964V314.279C240.985 311.858 239.218 309.895 237.039 309.895Z" fill="#4122FF"/>
<path opacity="0.2" d="M233.797 321.499V319.732C233.797 318.704 233.047 317.871 232.122 317.871H216.995C216.07 317.871 215.32 318.704 215.32 319.732V321.499C215.32 322.526 216.07 323.359 216.995 323.359H232.122C233.047 323.359 233.797 322.526 233.797 321.499Z" fill="white"/>
<path d="M237.039 343.801H190.361C188.181 343.801 186.414 345.763 186.414 348.184V360.87C186.414 363.291 188.181 365.254 190.361 365.254H237.039C239.218 365.254 240.985 363.291 240.985 360.87V348.184C240.985 345.763 239.218 343.801 237.039 343.801Z" fill="#4122FF"/>
<path opacity="0.2" d="M233.796 355.417V353.65C233.796 352.622 233.047 351.789 232.122 351.789H216.995C216.07 351.789 215.32 352.622 215.32 353.65V355.417C215.32 356.444 216.07 357.277 216.995 357.277H232.122C233.047 357.277 233.796 356.444 233.796 355.417Z" fill="white"/>
<path d="M237.039 377.707H190.361C188.181 377.707 186.414 379.669 186.414 382.09V394.776C186.414 397.197 188.181 399.16 190.361 399.16H237.039C239.218 399.16 240.985 397.197 240.985 394.776V382.09C240.985 379.669 239.218 377.707 237.039 377.707Z" fill="#4122FF"/>
<path opacity="0.2" d="M233.804 389.323V387.556C233.804 386.528 233.054 385.695 232.129 385.695H217.003C216.078 385.695 215.328 386.528 215.328 387.556V389.323C215.328 390.35 216.078 391.183 217.003 391.183H232.129C233.054 391.183 233.804 390.35 233.804 389.323Z" fill="white"/>
<path d="M176.921 154.551C178.644 154.551 180.04 153 180.04 151.086C180.04 149.172 178.644 147.621 176.921 147.621C175.198 147.621 173.801 149.172 173.801 151.086C173.801 153 175.198 154.551 176.921 154.551Z" fill="#4122FF"/>
<path d="M168.003 154.551C169.726 154.551 171.122 153 171.122 151.086C171.122 149.172 169.726 147.621 168.003 147.621C166.28 147.621 164.883 149.172 164.883 151.086C164.883 153 166.28 154.551 168.003 154.551Z" fill="#4122FF"/>
<path d="M159.096 154.551C160.819 154.551 162.216 153 162.216 151.086C162.216 149.172 160.819 147.621 159.096 147.621C157.373 147.621 155.977 149.172 155.977 151.086C155.977 153 157.373 154.551 159.096 154.551Z" fill="#4122FF"/>
<path opacity="0.4" d="M159.096 154.551C160.819 154.551 162.216 153 162.216 151.086C162.216 149.172 160.819 147.621 159.096 147.621C157.373 147.621 155.977 149.172 155.977 151.086C155.977 153 157.373 154.551 159.096 154.551Z" fill="white"/>
<path d="M153.297 151.086C153.297 151.776 153.112 152.45 152.767 153.024C152.422 153.597 151.932 154.045 151.358 154.309C150.784 154.573 150.153 154.642 149.544 154.507C148.934 154.372 148.375 154.04 147.936 153.552C147.496 153.065 147.197 152.443 147.076 151.766C146.955 151.09 147.017 150.388 147.255 149.751C147.492 149.114 147.895 148.569 148.411 148.185C148.928 147.802 149.535 147.598 150.156 147.598C150.989 147.598 151.788 147.965 152.377 148.619C152.966 149.273 153.297 150.161 153.297 151.086Z" fill="#4122FF"/>
<path d="M176.921 188.453C178.644 188.453 180.04 186.902 180.04 184.988C180.04 183.074 178.644 181.523 176.921 181.523C175.198 181.523 173.801 183.074 173.801 184.988C173.801 186.902 175.198 188.453 176.921 188.453Z" fill="#4122FF"/>
<path d="M168.003 188.453C169.726 188.453 171.122 186.902 171.122 184.988C171.122 183.074 169.726 181.523 168.003 181.523C166.28 181.523 164.883 183.074 164.883 184.988C164.883 186.902 166.28 188.453 168.003 188.453Z" fill="#4122FF"/>
<path d="M159.096 188.453C160.819 188.453 162.216 186.902 162.216 184.988C162.216 183.074 160.819 181.523 159.096 181.523C157.373 181.523 155.977 183.074 155.977 184.988C155.977 186.902 157.373 188.453 159.096 188.453Z" fill="#4122FF"/>
<path d="M153.297 185.048C153.297 185.738 153.112 186.412 152.767 186.986C152.422 187.559 151.932 188.006 151.358 188.27C150.784 188.534 150.153 188.604 149.544 188.469C148.934 188.334 148.375 188.002 147.936 187.514C147.496 187.026 147.197 186.405 147.076 185.728C146.955 185.052 147.017 184.35 147.255 183.713C147.492 183.075 147.895 182.531 148.411 182.147C148.928 181.764 149.535 181.559 150.156 181.559C150.989 181.559 151.788 181.927 152.377 182.581C152.966 183.235 153.297 184.123 153.297 185.048Z" fill="#4122FF"/>
<path opacity="0.4" d="M153.297 185.048C153.297 185.738 153.112 186.412 152.767 186.986C152.422 187.559 151.932 188.006 151.358 188.27C150.784 188.534 150.153 188.604 149.544 188.469C148.934 188.334 148.375 188.002 147.936 187.514C147.496 187.026 147.197 186.405 147.076 185.728C146.955 185.052 147.017 184.35 147.255 183.713C147.492 183.075 147.895 182.531 148.411 182.147C148.928 181.764 149.535 181.559 150.156 181.559C150.989 181.559 151.788 181.927 152.377 182.581C152.966 183.235 153.297 184.123 153.297 185.048Z" fill="white"/>
<path d="M161.639 222.36C163.362 222.36 164.759 220.809 164.759 218.895C164.759 216.982 163.362 215.43 161.639 215.43C159.916 215.43 158.52 216.982 158.52 218.895C158.52 220.809 159.916 222.36 161.639 222.36Z" fill="#4122FF"/>
<path opacity="0.4" d="M161.639 222.36C163.362 222.36 164.759 220.809 164.759 218.895C164.759 216.982 163.362 215.43 161.639 215.43C159.916 215.43 158.52 216.982 158.52 218.895C158.52 220.809 159.916 222.36 161.639 222.36Z" fill="white"/>
<path d="M152.718 222.36C154.441 222.36 155.837 220.809 155.837 218.895C155.837 216.982 154.441 215.43 152.718 215.43C150.995 215.43 149.598 216.982 149.598 218.895C149.598 220.809 150.995 222.36 152.718 222.36Z" fill="#4122FF"/>
<path d="M143.81 222.36C145.533 222.36 146.93 220.809 146.93 218.895C146.93 216.982 145.533 215.43 143.81 215.43C142.088 215.43 140.691 216.982 140.691 218.895C140.691 220.809 142.088 222.36 143.81 222.36Z" fill="#4122FF"/>
<path opacity="0.4" d="M143.81 222.36C145.533 222.36 146.93 220.809 146.93 218.895C146.93 216.982 145.533 215.43 143.81 215.43C142.088 215.43 140.691 216.982 140.691 218.895C140.691 220.809 142.088 222.36 143.81 222.36Z" fill="white"/>
<path d="M134.893 222.36C136.615 222.36 138.012 220.809 138.012 218.895C138.012 216.982 136.615 215.43 134.893 215.43C133.17 215.43 131.773 216.982 131.773 218.895C131.773 220.809 133.17 222.36 134.893 222.36Z" fill="#4122FF"/>
<path d="M176.921 256.266C178.644 256.266 180.04 254.714 180.04 252.801C180.04 250.887 178.644 249.336 176.921 249.336C175.198 249.336 173.801 250.887 173.801 252.801C173.801 254.714 175.198 256.266 176.921 256.266Z" fill="#4122FF"/>
<path opacity="0.4" d="M176.921 256.266C178.644 256.266 180.04 254.714 180.04 252.801C180.04 250.887 178.644 249.336 176.921 249.336C175.198 249.336 173.801 250.887 173.801 252.801C173.801 254.714 175.198 256.266 176.921 256.266Z" fill="white"/>
<path d="M168.003 256.266C169.726 256.266 171.122 254.714 171.122 252.801C171.122 250.887 169.726 249.336 168.003 249.336C166.28 249.336 164.883 250.887 164.883 252.801C164.883 254.714 166.28 256.266 168.003 256.266Z" fill="#4122FF"/>
<path opacity="0.4" d="M168.003 256.266C169.726 256.266 171.122 254.714 171.122 252.801C171.122 250.887 169.726 249.336 168.003 249.336C166.28 249.336 164.883 250.887 164.883 252.801C164.883 254.714 166.28 256.266 168.003 256.266Z" fill="white"/>
<path d="M159.096 256.266C160.819 256.266 162.216 254.714 162.216 252.801C162.216 250.887 160.819 249.336 159.096 249.336C157.373 249.336 155.977 250.887 155.977 252.801C155.977 254.714 157.373 256.266 159.096 256.266Z" fill="#4122FF"/>
<path d="M153.297 252.8C153.297 253.49 153.112 254.164 152.767 254.738C152.422 255.311 151.932 255.759 151.358 256.023C150.784 256.287 150.153 256.356 149.544 256.221C148.934 256.086 148.375 255.754 147.936 255.266C147.496 254.779 147.197 254.157 147.076 253.48C146.955 252.804 147.017 252.102 147.255 251.465C147.492 250.828 147.895 250.283 148.411 249.899C148.928 249.516 149.535 249.312 150.156 249.312C150.989 249.312 151.788 249.679 152.377 250.333C152.966 250.987 153.297 251.875 153.297 252.8Z" fill="#4122FF"/>
<path d="M176.921 290.173C178.644 290.173 180.04 288.621 180.04 286.707C180.04 284.794 178.644 283.242 176.921 283.242C175.198 283.242 173.801 284.794 173.801 286.707C173.801 288.621 175.198 290.173 176.921 290.173Z" fill="#4122FF"/>
<path d="M168.003 290.173C169.726 290.173 171.122 288.621 171.122 286.707C171.122 284.794 169.726 283.242 168.003 283.242C166.28 283.242 164.883 284.794 164.883 286.707C164.883 288.621 166.28 290.173 168.003 290.173Z" fill="#4122FF"/>
<path opacity="0.4" d="M168.003 290.173C169.726 290.173 171.122 288.621 171.122 286.707C171.122 284.794 169.726 283.242 168.003 283.242C166.28 283.242 164.883 284.794 164.883 286.707C164.883 288.621 166.28 290.173 168.003 290.173Z" fill="white"/>
<path d="M159.096 290.173C160.819 290.173 162.216 288.621 162.216 286.707C162.216 284.794 160.819 283.242 159.096 283.242C157.373 283.242 155.977 284.794 155.977 286.707C155.977 288.621 157.373 290.173 159.096 290.173Z" fill="#4122FF"/>
<path d="M153.297 286.708C153.297 287.397 153.112 288.072 152.767 288.646C152.422 289.219 151.932 289.666 151.358 289.93C150.784 290.194 150.153 290.263 149.544 290.129C148.934 289.994 148.375 289.662 147.936 289.174C147.496 288.686 147.197 288.065 147.076 287.388C146.955 286.711 147.017 286.01 147.255 285.373C147.492 284.735 147.895 284.19 148.411 283.807C148.928 283.424 149.535 283.219 150.156 283.219C150.989 283.219 151.788 283.587 152.377 284.241C152.966 284.895 153.297 285.782 153.297 286.708Z" fill="#4122FF"/>
<path d="M176.921 324.078C178.644 324.078 180.04 322.527 180.04 320.613C180.04 318.7 178.644 317.148 176.921 317.148C175.198 317.148 173.801 318.7 173.801 320.613C173.801 322.527 175.198 324.078 176.921 324.078Z" fill="#4122FF"/>
<path d="M168.003 324.078C169.726 324.078 171.122 322.527 171.122 320.613C171.122 318.7 169.726 317.148 168.003 317.148C166.28 317.148 164.883 318.7 164.883 320.613C164.883 322.527 166.28 324.078 168.003 324.078Z" fill="#4122FF"/>
<path d="M159.096 324.078C160.819 324.078 162.216 322.527 162.216 320.613C162.216 318.7 160.819 317.148 159.096 317.148C157.373 317.148 155.977 318.7 155.977 320.613C155.977 322.527 157.373 324.078 159.096 324.078Z" fill="#4122FF"/>
<path opacity="0.4" d="M159.096 324.078C160.819 324.078 162.216 322.527 162.216 320.613C162.216 318.7 160.819 317.148 159.096 317.148C157.373 317.148 155.977 318.7 155.977 320.613C155.977 322.527 157.373 324.078 159.096 324.078Z" fill="white"/>
<path d="M153.297 320.614C153.297 321.303 153.112 321.978 152.767 322.552C152.422 323.125 151.932 323.572 151.358 323.836C150.784 324.1 150.153 324.169 149.544 324.035C148.934 323.9 148.375 323.568 147.936 323.08C147.496 322.592 147.197 321.971 147.076 321.294C146.955 320.617 147.017 319.916 147.255 319.279C147.492 318.641 147.895 318.096 148.411 317.713C148.928 317.33 149.535 317.125 150.156 317.125C150.989 317.125 151.788 317.493 152.377 318.147C152.966 318.801 153.297 319.688 153.297 320.614Z" fill="#4122FF"/>
<path opacity="0.4" d="M153.297 320.614C153.297 321.303 153.112 321.978 152.767 322.552C152.422 323.125 151.932 323.572 151.358 323.836C150.784 324.1 150.153 324.169 149.544 324.035C148.934 323.9 148.375 323.568 147.936 323.08C147.496 322.592 147.197 321.971 147.076 321.294C146.955 320.617 147.017 319.916 147.255 319.279C147.492 318.641 147.895 318.096 148.411 317.713C148.928 317.33 149.535 317.125 150.156 317.125C150.989 317.125 151.788 317.493 152.377 318.147C152.966 318.801 153.297 319.688 153.297 320.614Z" fill="white"/>
<path d="M180.042 354.532C180.042 355.221 179.858 355.896 179.513 356.469C179.168 357.043 178.677 357.49 178.104 357.754C177.53 358.018 176.898 358.087 176.289 357.953C175.68 357.818 175.12 357.486 174.681 356.998C174.242 356.51 173.943 355.889 173.822 355.212C173.7 354.535 173.763 353.834 174 353.197C174.238 352.559 174.641 352.014 175.157 351.631C175.673 351.248 176.281 351.043 176.902 351.043C177.735 351.043 178.533 351.411 179.122 352.065C179.711 352.719 180.042 353.606 180.042 354.532Z" fill="#4122FF"/>
<path opacity="0.4" d="M180.042 354.532C180.042 355.221 179.858 355.896 179.513 356.469C179.168 357.043 178.677 357.49 178.104 357.754C177.53 358.018 176.898 358.087 176.289 357.953C175.68 357.818 175.12 357.486 174.681 356.998C174.242 356.51 173.943 355.889 173.822 355.212C173.7 354.535 173.763 353.834 174 353.197C174.238 352.559 174.641 352.014 175.157 351.631C175.673 351.248 176.281 351.043 176.902 351.043C177.735 351.043 178.533 351.411 179.122 352.065C179.711 352.719 180.042 353.606 180.042 354.532Z" fill="white"/>
<path d="M171.133 354.532C171.133 355.221 170.948 355.896 170.603 356.469C170.258 357.043 169.768 357.49 169.194 357.754C168.62 358.018 167.989 358.087 167.379 357.953C166.77 357.818 166.211 357.486 165.771 356.998C165.332 356.51 165.033 355.889 164.912 355.212C164.791 354.535 164.853 353.834 165.091 353.197C165.328 352.559 165.731 352.014 166.247 351.631C166.764 351.248 167.371 351.043 167.992 351.043C168.825 351.043 169.624 351.411 170.213 352.065C170.802 352.719 171.133 353.606 171.133 354.532Z" fill="#4122FF"/>
<path d="M162.215 354.532C162.215 355.221 162.03 355.896 161.685 356.469C161.34 357.043 160.85 357.49 160.276 357.754C159.702 358.018 159.071 358.087 158.461 357.953C157.852 357.818 157.293 357.486 156.853 356.998C156.414 356.51 156.115 355.889 155.994 355.212C155.873 354.535 155.935 353.834 156.173 353.197C156.41 352.559 156.813 352.014 157.329 351.631C157.846 351.248 158.453 351.043 159.074 351.043C159.907 351.043 160.706 351.411 161.295 352.065C161.884 352.719 162.215 353.606 162.215 354.532Z" fill="#4122FF"/>
<path d="M153.297 354.532C153.297 355.221 153.112 355.896 152.767 356.469C152.422 357.043 151.932 357.49 151.358 357.754C150.784 358.018 150.153 358.087 149.544 357.953C148.934 357.818 148.375 357.486 147.936 356.998C147.496 356.51 147.197 355.889 147.076 355.212C146.955 354.535 147.017 353.834 147.255 353.197C147.492 352.559 147.895 352.014 148.411 351.631C148.928 351.248 149.535 351.043 150.156 351.043C150.989 351.043 151.788 351.411 152.377 352.065C152.966 352.719 153.297 353.606 153.297 354.532Z" fill="#4122FF"/>
<path d="M176.921 391.903C178.644 391.903 180.04 390.352 180.04 388.438C180.04 386.525 178.644 384.973 176.921 384.973C175.198 384.973 173.801 386.525 173.801 388.438C173.801 390.352 175.198 391.903 176.921 391.903Z" fill="#4122FF"/>
<path d="M168.003 391.903C169.726 391.903 171.122 390.352 171.122 388.438C171.122 386.525 169.726 384.973 168.003 384.973C166.28 384.973 164.883 386.525 164.883 388.438C164.883 390.352 166.28 391.903 168.003 391.903Z" fill="#4122FF"/>
<path d="M159.096 391.903C160.819 391.903 162.216 390.352 162.216 388.438C162.216 386.525 160.819 384.973 159.096 384.973C157.373 384.973 155.977 386.525 155.977 388.438C155.977 390.352 157.373 391.903 159.096 391.903Z" fill="#4122FF"/>
<path opacity="0.4" d="M159.096 391.903C160.819 391.903 162.216 390.352 162.216 388.438C162.216 386.525 160.819 384.973 159.096 384.973C157.373 384.973 155.977 386.525 155.977 388.438C155.977 390.352 157.373 391.903 159.096 391.903Z" fill="white"/>
<path d="M153.297 388.437C153.297 389.127 153.112 389.801 152.767 390.375C152.422 390.949 151.932 391.396 151.358 391.66C150.784 391.924 150.153 391.993 149.544 391.858C148.934 391.724 148.375 391.391 147.936 390.904C147.496 390.416 147.197 389.794 147.076 389.118C146.955 388.441 147.017 387.74 147.255 387.102C147.492 386.465 147.895 385.92 148.411 385.537C148.928 385.153 149.535 384.949 150.156 384.949C150.989 384.949 151.788 385.316 152.377 385.97C152.966 386.625 153.297 387.512 153.297 388.437Z" fill="#4122FF"/>
<path d="M140.825 151.085C140.825 152.571 140.428 154.024 139.685 155.26C138.941 156.495 137.885 157.458 136.648 158.026C135.412 158.594 134.052 158.742 132.74 158.452C131.428 158.161 130.223 157.444 129.277 156.393C128.332 155.341 127.689 154.001 127.429 152.544C127.169 151.086 127.305 149.575 127.818 148.203C128.331 146.83 129.2 145.658 130.313 144.834C131.427 144.01 132.735 143.572 134.073 143.574C135.865 143.577 137.582 144.37 138.848 145.778C140.114 147.186 140.825 149.095 140.825 151.085Z" fill="#4122FF"/>
<path opacity="0.4" d="M140.825 151.085C140.825 152.571 140.428 154.024 139.685 155.26C138.941 156.495 137.885 157.458 136.648 158.026C135.412 158.594 134.052 158.742 132.74 158.452C131.428 158.161 130.223 157.444 129.277 156.393C128.332 155.341 127.689 154.001 127.429 152.544C127.169 151.086 127.305 149.575 127.818 148.203C128.331 146.83 129.2 145.658 130.313 144.834C131.427 144.01 132.735 143.572 134.073 143.574C135.865 143.577 137.582 144.37 138.848 145.778C140.114 147.186 140.825 149.095 140.825 151.085Z" fill="white"/>
<path d="M140.825 185.05C140.825 186.536 140.428 187.989 139.685 189.224C138.941 190.46 137.885 191.423 136.648 191.991C135.412 192.559 134.052 192.707 132.74 192.416C131.428 192.126 130.223 191.409 129.277 190.357C128.332 189.306 127.689 187.966 127.429 186.508C127.169 185.051 127.305 183.54 127.818 182.168C128.331 180.795 129.2 179.623 130.313 178.799C131.427 177.975 132.735 177.536 134.073 177.539C135.865 177.542 137.582 178.335 138.848 179.743C140.114 181.151 140.825 183.06 140.825 185.05Z" fill="#4122FF"/>
<path opacity="0.4" d="M140.825 185.05C140.825 186.536 140.428 187.989 139.685 189.224C138.941 190.46 137.885 191.423 136.648 191.991C135.412 192.559 134.052 192.707 132.74 192.416C131.428 192.126 130.223 191.409 129.277 190.357C128.332 189.306 127.689 187.966 127.429 186.508C127.169 185.051 127.305 183.54 127.818 182.168C128.331 180.795 129.2 179.623 130.313 178.799C131.427 177.975 132.735 177.536 134.073 177.539C135.865 177.542 137.582 178.335 138.848 179.743C140.114 181.151 140.825 183.06 140.825 185.05Z" fill="white"/>
<path d="M125.545 218.898C125.545 220.384 125.148 221.837 124.404 223.072C123.661 224.308 122.604 225.271 121.368 225.839C120.131 226.407 118.771 226.555 117.459 226.264C116.147 225.973 114.942 225.257 113.997 224.205C113.051 223.154 112.408 221.814 112.148 220.356C111.889 218.898 112.024 217.388 112.537 216.015C113.051 214.643 113.919 213.471 115.033 212.647C116.146 211.823 117.455 211.384 118.793 211.387C120.584 211.39 122.302 212.182 123.568 213.591C124.834 214.999 125.545 216.908 125.545 218.898Z" fill="#4122FF"/>
<path opacity="0.4" d="M125.545 218.898C125.545 220.384 125.148 221.837 124.404 223.072C123.661 224.308 122.604 225.271 121.368 225.839C120.131 226.407 118.771 226.555 117.459 226.264C116.147 225.973 114.942 225.257 113.997 224.205C113.051 223.154 112.408 221.814 112.148 220.356C111.889 218.898 112.024 217.388 112.537 216.015C113.051 214.643 113.919 213.471 115.033 212.647C116.146 211.823 117.455 211.384 118.793 211.387C120.584 211.39 122.302 212.182 123.568 213.591C124.834 214.999 125.545 216.908 125.545 218.898Z" fill="white"/>
<path d="M140.825 252.804C140.825 254.29 140.428 255.743 139.685 256.978C138.941 258.214 137.885 259.177 136.648 259.745C135.412 260.313 134.052 260.461 132.74 260.17C131.428 259.88 130.223 259.163 129.277 258.111C128.332 257.06 127.689 255.72 127.429 254.262C127.169 252.804 127.305 251.294 127.818 249.921C128.331 248.549 129.2 247.377 130.313 246.553C131.427 245.729 132.735 245.29 134.073 245.293C135.865 245.296 137.582 246.088 138.848 247.497C140.114 248.905 140.825 250.814 140.825 252.804Z" fill="#4122FF"/>
<path opacity="0.4" d="M140.825 252.804C140.825 254.29 140.428 255.743 139.685 256.978C138.941 258.214 137.885 259.177 136.648 259.745C135.412 260.313 134.052 260.461 132.74 260.17C131.428 259.88 130.223 259.163 129.277 258.111C128.332 257.06 127.689 255.72 127.429 254.262C127.169 252.804 127.305 251.294 127.818 249.921C128.331 248.549 129.2 247.377 130.313 246.553C131.427 245.729 132.735 245.29 134.073 245.293C135.865 245.296 137.582 246.088 138.848 247.497C140.114 248.905 140.825 250.814 140.825 252.804Z" fill="white"/>
<path d="M140.825 286.71C140.827 288.197 140.432 289.651 139.69 290.888C138.948 292.125 137.892 293.089 136.656 293.659C135.419 294.229 134.059 294.379 132.746 294.09C131.433 293.8 130.227 293.085 129.281 292.033C128.335 290.982 127.69 289.643 127.43 288.185C127.169 286.726 127.304 285.215 127.817 283.842C128.33 282.469 129.199 281.296 130.312 280.472C131.426 279.647 132.735 279.208 134.073 279.211C135.863 279.214 137.579 280.005 138.845 281.411C140.11 282.816 140.823 284.722 140.825 286.71Z" fill="#4122FF"/>
<path opacity="0.4" d="M140.825 286.71C140.827 288.197 140.432 289.651 139.69 290.888C138.948 292.125 137.892 293.089 136.656 293.659C135.419 294.229 134.059 294.379 132.746 294.09C131.433 293.8 130.227 293.085 129.281 292.033C128.335 290.982 127.69 289.643 127.43 288.185C127.169 286.726 127.304 285.215 127.817 283.842C128.33 282.469 129.199 281.296 130.312 280.472C131.426 279.647 132.735 279.208 134.073 279.211C135.863 279.214 137.579 280.005 138.845 281.411C140.11 282.816 140.823 284.722 140.825 286.71Z" fill="white"/>
<path d="M140.825 320.612C140.827 322.099 140.432 323.553 139.69 324.79C138.948 326.027 137.892 326.991 136.656 327.561C135.419 328.131 134.059 328.281 132.746 327.992C131.433 327.702 130.227 326.987 129.281 325.935C128.335 324.884 127.69 323.545 127.43 322.087C127.169 320.628 127.304 319.117 127.817 317.744C128.33 316.371 129.199 315.198 130.312 314.374C131.426 313.549 132.735 313.11 134.073 313.113C135.863 313.116 137.579 313.907 138.845 315.313C140.11 316.718 140.823 318.624 140.825 320.612Z" fill="#4122FF"/>
<path opacity="0.4" d="M140.825 320.612C140.827 322.099 140.432 323.553 139.69 324.79C138.948 326.027 137.892 326.991 136.656 327.561C135.419 328.131 134.059 328.281 132.746 327.992C131.433 327.702 130.227 326.987 129.281 325.935C128.335 324.884 127.69 323.545 127.43 322.087C127.169 320.628 127.304 319.117 127.817 317.744C128.33 316.371 129.199 315.198 130.312 314.374C131.426 313.549 132.735 313.11 134.073 313.113C135.863 313.116 137.579 313.907 138.845 315.313C140.11 316.718 140.823 318.624 140.825 320.612Z" fill="white"/>
<path d="M140.825 354.531C140.825 356.017 140.428 357.47 139.685 358.706C138.941 359.941 137.885 360.904 136.648 361.472C135.412 362.04 134.052 362.188 132.74 361.898C131.428 361.607 130.223 360.89 129.277 359.839C128.332 358.787 127.689 357.447 127.429 355.99C127.169 354.532 127.305 353.021 127.818 351.649C128.331 350.276 129.2 349.104 130.313 348.28C131.427 347.456 132.735 347.018 134.073 347.02C134.961 347.02 135.84 347.214 136.66 347.592C137.479 347.969 138.224 348.523 138.851 349.221C139.478 349.918 139.976 350.746 140.314 351.658C140.653 352.569 140.827 353.545 140.825 354.531Z" fill="#4122FF"/>
<path opacity="0.4" d="M140.825 354.531C140.825 356.017 140.428 357.47 139.685 358.706C138.941 359.941 137.885 360.904 136.648 361.472C135.412 362.04 134.052 362.188 132.74 361.898C131.428 361.607 130.223 360.89 129.277 359.839C128.332 358.787 127.689 357.447 127.429 355.99C127.169 354.532 127.305 353.021 127.818 351.649C128.331 350.276 129.2 349.104 130.313 348.28C131.427 347.456 132.735 347.018 134.073 347.02C134.961 347.02 135.84 347.214 136.66 347.592C137.479 347.969 138.224 348.523 138.851 349.221C139.478 349.918 139.976 350.746 140.314 351.658C140.653 352.569 140.827 353.545 140.825 354.531Z" fill="white"/>
<path d="M140.825 388.437C140.825 389.923 140.428 391.376 139.685 392.612C138.941 393.847 137.885 394.81 136.648 395.378C135.412 395.946 134.052 396.094 132.74 395.804C131.428 395.513 130.223 394.796 129.277 393.745C128.332 392.693 127.689 391.353 127.429 389.896C127.169 388.438 127.305 386.927 127.818 385.555C128.331 384.182 129.2 383.01 130.313 382.186C131.427 381.362 132.735 380.924 134.073 380.926C134.961 380.926 135.84 381.12 136.66 381.498C137.479 381.875 138.224 382.429 138.851 383.127C139.478 383.824 139.976 384.652 140.314 385.564C140.653 386.475 140.827 387.451 140.825 388.437Z" fill="#4122FF"/>
<path opacity="0.4" d="M140.825 388.437C140.825 389.923 140.428 391.376 139.685 392.612C138.941 393.847 137.885 394.81 136.648 395.378C135.412 395.946 134.052 396.094 132.74 395.804C131.428 395.513 130.223 394.796 129.277 393.745C128.332 392.693 127.689 391.353 127.429 389.896C127.169 388.438 127.305 386.927 127.818 385.555C128.331 384.182 129.2 383.01 130.313 382.186C131.427 381.362 132.735 380.924 134.073 380.926C134.961 380.926 135.84 381.12 136.66 381.498C137.479 381.875 138.224 382.429 138.851 383.127C139.478 383.824 139.976 384.652 140.314 385.564C140.653 386.475 140.827 387.451 140.825 388.437Z" fill="white"/>
<path d="M233.794 106.54C233.342 103.739 232.34 101.082 230.858 98.7608C229.376 96.4393 227.451 94.5098 225.22 93.1099C225.22 92.9588 225.22 92.8076 225.22 92.6565C225.22 87.5095 223.38 82.5734 220.103 78.934C216.826 75.2946 212.382 73.25 207.749 73.25H201.049V74.7267C198.837 75.754 196.838 77.2747 195.176 79.1948C193.514 81.1148 192.224 83.3933 191.387 85.8892C190.813 85.7788 190.232 85.7204 189.649 85.7148C187.559 85.7186 185.518 86.4172 183.788 87.7206C182.059 89.0241 180.72 90.8728 179.945 93.0286C177.548 92.3835 175.028 92.591 172.743 93.6216C170.434 94.6193 168.437 96.3451 167 98.5865C165.562 100.828 164.746 103.487 164.651 106.238C164.615 108.086 164.911 109.924 165.523 111.643C166.135 113.363 167.05 114.929 168.214 116.251C169.378 117.572 170.769 118.622 172.303 119.338C173.838 120.055 175.485 120.424 177.15 120.423H224.477C226.976 120.452 229.383 119.385 231.178 117.454C232.973 115.523 234.011 112.884 234.066 110.11V109.993C234.072 108.835 233.981 107.679 233.794 106.54Z" fill="#4122FF"/>
<path d="M227.106 106.536C226.659 103.738 225.661 101.083 224.185 98.7626C222.708 96.4413 220.789 94.5101 218.564 93.1064C218.564 92.9553 218.564 92.8041 218.564 92.6529C218.563 88.1036 217.122 83.6995 214.495 80.2099C211.867 76.7202 208.219 74.3669 204.188 73.5609C200.157 72.7549 196 73.5475 192.441 75.8002C188.883 78.0529 186.15 81.6226 184.72 85.8857C182.366 85.4246 179.94 85.884 177.856 87.1856C175.772 88.4872 174.158 90.5508 173.289 93.025C170.892 92.38 168.372 92.5874 166.087 93.618C163.778 94.6158 161.781 96.3416 160.344 98.583C158.906 100.824 158.09 103.483 157.995 106.234C157.957 108.082 158.252 109.919 158.863 111.639C159.474 113.358 160.388 114.924 161.551 116.246C162.715 117.568 164.104 118.617 165.638 119.334C167.172 120.051 168.819 120.42 170.484 120.419H217.821C220.319 120.444 222.725 119.377 224.52 117.446C226.314 115.516 227.352 112.879 227.41 110.106V109.989C227.405 108.83 227.304 107.674 227.106 106.536Z" fill="#4122FF"/>
<path opacity="0.3" d="M227.106 106.536C226.659 103.738 225.661 101.083 224.185 98.7626C222.708 96.4413 220.789 94.5101 218.564 93.1064C218.564 92.9553 218.564 92.8041 218.564 92.6529C218.563 88.1036 217.122 83.6995 214.495 80.2099C211.867 76.7202 208.219 74.3669 204.188 73.5609C200.157 72.7549 196 73.5475 192.441 75.8002C188.883 78.0529 186.15 81.6226 184.72 85.8857C182.366 85.4246 179.94 85.884 177.856 87.1856C175.772 88.4872 174.158 90.5508 173.289 93.025C170.892 92.38 168.372 92.5874 166.087 93.618C163.778 94.6158 161.781 96.3416 160.344 98.583C158.906 100.824 158.09 103.483 157.995 106.234C157.957 108.082 158.252 109.919 158.863 111.639C159.474 113.358 160.388 114.924 161.551 116.246C162.715 117.568 164.104 118.617 165.638 119.334C167.172 120.051 168.819 120.42 170.484 120.419H217.821C220.319 120.444 222.725 119.377 224.52 117.446C226.314 115.516 227.352 112.879 227.41 110.106V109.989C227.405 108.83 227.304 107.674 227.106 106.536Z" fill="white"/>
<path d="M202.349 61.0039H201.469V63.9225H202.349V61.0039Z" fill="#4122FF"/>
<path opacity="0.2" d="M202.349 61.0039H201.469V63.9225H202.349V61.0039Z" fill="black"/>
<path d="M370.752 127.308H369.872V121.494H370.752V127.308ZM370.752 115.68H369.872V109.866H370.752V115.68ZM370.752 104.053H369.872V98.2386H370.752V104.053ZM370.752 92.4248H369.872V86.611H370.752V92.4248ZM370.752 80.7972H369.872V74.9834H370.752V80.7972ZM370.752 69.1696H369.872V63.3558H370.752V69.1696ZM370.752 57.542H369.872V51.7281H370.752V57.542ZM202.349 55.1234H201.469V51.2049C201.469 50.5833 201.501 49.9622 201.563 49.3445L202.432 49.4608C202.378 50.0402 202.35 50.6223 202.349 51.2049V55.1234ZM369.108 46.1934C368.545 44.4229 367.681 42.7888 366.564 41.3796L367.213 40.868C368.409 42.371 369.333 44.116 369.935 46.0074L369.108 46.1934ZM203.961 44.1353L203.197 43.6702C204.057 41.8928 205.216 40.3142 206.609 39.0192L207.174 39.775C205.859 40.9831 204.767 42.4641 203.961 44.1353ZM362.576 38.0424C361.085 37.1965 359.46 36.6792 357.792 36.5192L357.865 35.5425C359.664 35.7121 361.416 36.2648 363.026 37.1704L362.576 38.0424ZM211.582 37.1471L211.32 36.2285C212.711 35.7356 214.162 35.4846 215.622 35.4844H216.617V36.4611H215.622C214.252 36.46 212.889 36.6913 211.582 37.1471ZM352.558 36.4611H347.324V35.4844H352.558V36.4611ZM342.089 36.4611H336.855V35.4844H342.089V36.4611ZM331.621 36.4611H326.387V35.4844H331.621V36.4611ZM321.153 36.4611H315.919V35.4844H321.153V36.4611ZM310.685 36.4611H305.451V35.4844H310.685V36.4611ZM300.216 36.4611H294.982V35.4844H300.216V36.4611ZM289.748 36.4611H284.514V35.4844H289.748V36.4611ZM279.28 36.4611H274.046V35.4844H279.28V36.4611ZM268.812 36.4611H263.577V35.4844H268.812V36.4611ZM258.343 36.4611H253.109V35.4844H258.343V36.4611ZM247.875 36.4611H242.641V35.4844H247.875V36.4611ZM237.407 36.4611H232.173V35.4844H237.407V36.4611ZM226.939 36.4611H221.704V35.4844H226.939V36.4611Z" fill="#4122FF"/>
<path opacity="0.2" d="M370.752 127.308H369.872V121.494H370.752V127.308ZM370.752 115.68H369.872V109.866H370.752V115.68ZM370.752 104.053H369.872V98.2386H370.752V104.053ZM370.752 92.4248H369.872V86.611H370.752V92.4248ZM370.752 80.7972H369.872V74.9834H370.752V80.7972ZM370.752 69.1696H369.872V63.3558H370.752V69.1696ZM370.752 57.542H369.872V51.7281H370.752V57.542ZM202.349 55.1234H201.469V51.2049C201.469 50.5833 201.501 49.9622 201.563 49.3445L202.432 49.4608C202.378 50.0402 202.35 50.6223 202.349 51.2049V55.1234ZM369.108 46.1934C368.545 44.4229 367.681 42.7888 366.564 41.3796L367.213 40.868C368.409 42.371 369.333 44.116 369.935 46.0074L369.108 46.1934ZM203.961 44.1353L203.197 43.6702C204.057 41.8928 205.216 40.3142 206.609 39.0192L207.174 39.775C205.859 40.9831 204.767 42.4641 203.961 44.1353ZM362.576 38.0424C361.085 37.1965 359.46 36.6792 357.792 36.5192L357.865 35.5425C359.664 35.7121 361.416 36.2648 363.026 37.1704L362.576 38.0424ZM211.582 37.1471L211.32 36.2285C212.711 35.7356 214.162 35.4846 215.622 35.4844H216.617V36.4611H215.622C214.252 36.46 212.889 36.6913 211.582 37.1471ZM352.558 36.4611H347.324V35.4844H352.558V36.4611ZM342.089 36.4611H336.855V35.4844H342.089V36.4611ZM331.621 36.4611H326.387V35.4844H331.621V36.4611ZM321.153 36.4611H315.919V35.4844H321.153V36.4611ZM310.685 36.4611H305.451V35.4844H310.685V36.4611ZM300.216 36.4611H294.982V35.4844H300.216V36.4611ZM289.748 36.4611H284.514V35.4844H289.748V36.4611ZM279.28 36.4611H274.046V35.4844H279.28V36.4611ZM268.812 36.4611H263.577V35.4844H268.812V36.4611ZM258.343 36.4611H253.109V35.4844H258.343V36.4611ZM247.875 36.4611H242.641V35.4844H247.875V36.4611ZM237.407 36.4611H232.173V35.4844H237.407V36.4611ZM226.939 36.4611H221.704V35.4844H226.939V36.4611Z" fill="black"/>
<path d="M370.75 133.145H369.871V136.063H370.75V133.145Z" fill="#4122FF"/>
<path opacity="0.2" d="M370.75 133.145H369.871V136.063H370.75V133.145Z" fill="black"/>
<path d="M300.426 413.693H308.12L308.947 393.914H301.253L300.426 413.693Z" fill="#E4897B"/>
<path d="M308.382 412.707H300.007C299.855 412.707 299.708 412.767 299.591 412.875C299.474 412.984 299.395 413.134 299.368 413.3L298.123 420.893C298.094 421.079 298.102 421.27 298.146 421.452C298.191 421.635 298.271 421.804 298.38 421.948C298.49 422.092 298.627 422.208 298.782 422.287C298.936 422.366 299.104 422.406 299.274 422.405C302.299 422.347 306.675 422.149 310.486 422.149C314.935 422.149 315.563 422.428 320.776 422.428C323.916 422.428 324.702 418.94 323.372 418.556C317.3 417.091 315.615 416.94 310.297 413.382C309.729 412.959 309.065 412.725 308.382 412.707Z" fill="#263238"/>
<path d="M308.937 393.926L308.518 404.112H300.824L301.253 393.926H308.937Z" fill="#CE6F64"/>
<path d="M351.971 129.376C351.824 132.062 351.657 135.004 351.584 137.818C351.51 140.632 351.458 143.492 351.489 146.295C351.521 149.097 351.615 151.887 351.835 154.562C352.003 157.085 352.371 159.587 352.934 162.038C353.148 162.972 353.454 163.876 353.845 164.736C353.959 164.995 354.092 165.244 354.242 165.48L354.714 166.329C355.017 166.887 355.384 167.492 355.76 168.027C357.132 170.294 358.65 172.55 360.22 174.817C363.36 179.294 366.783 183.817 370.144 188.247L366.134 193.445C361.498 190.098 357.13 186.313 353.081 182.131C351.003 180 349.032 177.745 347.176 175.375C346.705 174.759 346.224 174.212 345.784 173.515L345.104 172.538C344.838 172.17 344.597 171.782 344.381 171.375C343.392 169.699 342.591 167.895 341.995 166.003C341.004 162.782 340.303 159.46 339.901 156.085C339.472 152.887 339.283 149.736 339.137 146.62C338.99 143.504 339.001 140.399 339.137 137.318C339.273 134.237 339.357 131.225 339.671 128.016L351.971 129.376Z" fill="#E4897B"/>
<path d="M354.651 146.889L351.385 148.342L345.89 150.772L336.133 155.11C336.133 155.11 331.684 129.401 334.039 121.587C336.677 113.006 345.994 113.204 351.029 122.982C356.012 132.517 354.651 146.889 354.651 146.889Z" fill="#4122FF"/>
<path opacity="0.6" d="M354.651 146.889L351.385 148.342L345.89 150.772L336.133 155.11C336.133 155.11 331.684 129.401 334.039 121.587C336.677 113.006 345.994 113.204 351.029 122.982C356.012 132.517 354.651 146.889 354.651 146.889Z" fill="white"/>
<path d="M350.946 148.549L345.931 150.77C345.094 146.735 344.319 139.98 346.8 134.922C350.192 138.073 350.715 144.433 350.946 148.549Z" fill="#4122FF"/>
<path opacity="0.4" d="M350.946 148.549L345.931 150.77C345.094 146.735 344.319 139.98 346.8 134.922C350.192 138.073 350.715 144.433 350.946 148.549Z" fill="white"/>
<path d="M345.962 184.27H303.869C303.566 180.073 304.518 168.701 303.869 153.213C303.723 149.643 303.492 145.864 303.147 141.899C302.379 132.892 301.042 123.955 299.148 115.156C303.779 114.154 308.465 113.494 313.175 113.179C319.137 112.795 325.114 112.795 331.076 113.179C335.198 113.643 339.28 114.475 343.282 115.667C343.282 115.667 353.196 135.12 345.962 184.27Z" fill="#4122FF"/>
<path opacity="0.6" d="M345.962 184.27H303.869C303.566 180.073 304.518 168.701 303.869 153.213C303.723 149.643 303.492 145.864 303.147 141.899C302.379 132.892 301.042 123.955 299.148 115.156C303.779 114.154 308.465 113.494 313.175 113.179C319.137 112.795 325.114 112.795 331.076 113.179C335.198 113.643 339.28 114.475 343.282 115.667C343.282 115.667 353.196 135.12 345.962 184.27Z" fill="white"/>
<path d="M303.891 153.213C303.744 149.644 303.514 145.865 303.168 141.9C304.529 140.958 306.309 140.9 306.675 146.434C307.01 151.55 305.451 152.969 303.891 153.213Z" fill="#4122FF"/>
<path opacity="0.4" d="M303.891 153.213C303.744 149.644 303.514 145.865 303.168 141.9C304.529 140.958 306.309 140.9 306.675 146.434C307.01 151.55 305.451 152.969 303.891 153.213Z" fill="white"/>
<path d="M382.047 194.479L375.975 198.676L368.48 196.897L374.447 188.676L382.047 194.479Z" fill="#E4897B"/>
<path d="M367.435 187.375L374.449 188.631L368.482 196.852C368.482 196.852 364.734 196.433 363.719 190.805L367.435 187.375Z" fill="#E4897B"/>
<path d="M314.253 90.7969C315.583 97.1921 317.09 108.913 313.207 113.18C313.207 113.18 315.164 117.471 325.863 117.471C335.63 117.471 331.097 113.18 331.097 113.18C324.617 111.471 324.617 106.204 325.57 101.216L314.253 90.7969Z" fill="#E4897B"/>
<path d="M318.871 95.0508L325.571 101.213C325.329 102.359 325.182 103.526 325.131 104.701C323.09 106.911 319.195 101.318 318.85 98.4693C318.674 97.3374 318.681 96.1799 318.871 95.0508Z" fill="#CE6F64"/>
<path d="M337.106 74.5857C339.786 78.2833 336.656 89.9342 331.108 89.7016C325.56 89.4691 332.019 67.5161 337.106 74.5857Z" fill="#263238"/>
<path d="M315.396 80.1682C314.788 88.7959 314.045 93.7842 317.395 98.9236C318.471 100.607 319.938 101.934 321.639 102.766C323.34 103.597 325.212 103.902 327.057 103.647C328.901 103.392 330.649 102.586 332.114 101.316C333.579 100.047 334.708 98.3602 335.38 96.4353C338.007 89.0982 338.52 76.2381 331.412 71.3778C329.904 70.2717 328.161 69.6239 326.357 69.4989C324.554 69.3739 322.752 69.7761 321.132 70.6653C319.511 71.5546 318.129 72.8999 317.123 74.5672C316.116 76.2346 315.521 78.1657 315.396 80.1682Z" fill="#E4897B"/>
<path d="M312.591 69.3203L320.966 72.6226C317.291 78.0759 322.63 90.9361 316.14 88.5292C313.167 87.4362 303.473 75.5295 312.591 69.3203Z" fill="#263238"/>
<path d="M316.652 71.5522C319.792 74.1335 332.679 77.2032 340.038 72.6452C338.523 72.201 337.054 71.5854 335.652 70.808C335.652 70.808 341.158 70.5173 343.597 65.9942C340.174 66.6383 336.656 66.1448 333.485 64.5756C334.703 64.176 335.832 63.4979 336.8 62.5848C337.769 61.6717 338.554 60.5437 339.106 59.2734C328.942 59.4129 307.053 61.7036 310.842 69.6452C314.632 77.5869 316.652 71.5522 316.652 71.5522Z" fill="#263238"/>
<path d="M312.256 70.5054C310.713 69.6893 309.313 68.5751 308.121 67.2148C307.639 68.552 307.639 72.1682 312.256 70.5054Z" fill="#263238"/>
<path d="M310.683 88.8886C311.509 90.9229 313.009 92.5259 314.87 93.3652C317.309 94.4698 318.744 92.2024 318.241 89.4583C317.791 87.0281 315.98 83.5282 313.447 83.5747C310.913 83.6213 309.741 86.4119 310.683 88.8886Z" fill="#E4897B"/>
<path d="M324.031 413.693H331.714L333.306 393.914H325.622L324.031 413.693Z" fill="#E4897B"/>
<path d="M332.074 412.707H323.699C323.546 412.705 323.398 412.764 323.281 412.872C323.164 412.981 323.085 413.133 323.06 413.3L321.783 420.893C321.754 421.079 321.762 421.27 321.807 421.452C321.851 421.635 321.931 421.804 322.041 421.948C322.151 422.092 322.288 422.208 322.442 422.287C322.597 422.366 322.765 422.406 322.935 422.405C325.971 422.347 330.336 422.149 334.146 422.149C338.595 422.149 342.458 422.428 347.671 422.428C350.812 422.428 351.597 418.94 350.257 418.556C344.196 417.091 339.276 416.94 333.968 413.382C333.406 412.965 332.75 412.731 332.074 412.707Z" fill="#263238"/>
<path d="M333.308 393.926L332.492 404.112H324.797L325.614 393.926H333.308Z" fill="#CE6F64"/>
<path d="M335.284 414.021C335.803 414.161 336.35 414.099 336.833 413.845C336.991 413.739 337.12 413.588 337.208 413.409C337.297 413.229 337.34 413.027 337.336 412.822C337.348 412.702 337.332 412.58 337.288 412.47C337.243 412.359 337.173 412.264 337.085 412.194C336.278 411.555 333.567 412.822 333.253 412.973C333.222 412.99 333.196 413.018 333.177 413.051C333.159 413.083 333.149 413.12 333.148 413.159C333.152 413.201 333.166 413.242 333.188 413.276C333.21 413.311 333.239 413.339 333.274 413.357C333.921 413.656 334.595 413.879 335.284 414.021ZM336.645 412.439C336.727 412.449 336.806 412.48 336.875 412.531C336.927 412.531 336.969 412.625 336.969 412.788C336.971 412.926 336.942 413.062 336.883 413.184C336.825 413.306 336.739 413.411 336.634 413.486C335.699 413.775 334.7 413.658 333.839 413.159C334.723 412.717 335.676 412.473 336.645 412.439Z" fill="#4122FF"/>
<path d="M333.315 413.369H333.409C334.268 413.02 336.037 411.404 335.984 410.416C335.972 410.259 335.913 410.11 335.816 409.994C335.72 409.878 335.591 409.802 335.451 409.776C335.314 409.731 335.171 409.719 335.03 409.741C334.889 409.763 334.754 409.819 334.634 409.904C333.587 410.567 333.168 413.021 333.158 413.125C333.151 413.182 333.164 413.239 333.193 413.286C333.222 413.334 333.265 413.367 333.315 413.381V413.369ZM335.273 410.137H335.356C335.597 410.218 335.608 410.335 335.608 410.393C335.608 410.974 334.487 412.23 333.608 412.718C333.775 411.751 334.202 410.864 334.833 410.172C334.972 410.106 335.127 410.094 335.273 410.137Z" fill="#4122FF"/>
<path d="M321.899 401.672H334.46C334.46 401.672 353.733 319.906 353.366 292.175C353 265.501 346.038 184.27 346.038 184.27H318.297C318.297 184.27 320.443 202.34 322.893 224.63C325.081 244.304 327.489 267.292 328.87 284.035C329.268 289.012 329.593 293.43 329.781 297.058C331.215 324.29 321.899 401.672 321.899 401.672Z" fill="#4122FF"/>
<path opacity="0.3" d="M321.899 401.672H334.46C334.46 401.672 353.733 319.906 353.366 292.175C353 265.501 346.038 184.27 346.038 184.27H318.297C318.297 184.27 320.443 202.34 322.893 224.63C325.081 244.304 327.489 267.292 328.87 284.035C329.268 289.012 329.593 293.43 329.781 297.058C331.215 324.29 321.899 401.672 321.899 401.672Z" fill="black"/>
<path d="M322.891 224.583C325.079 244.257 327.486 267.245 328.868 283.989C331.789 269.373 338.918 226.886 328.219 205.398C325.539 209.688 323.906 217.025 322.891 224.583Z" fill="#4122FF"/>
<path opacity="0.4" d="M322.891 224.583C325.079 244.257 327.486 267.245 328.868 283.989C331.789 269.373 338.918 226.886 328.219 205.398C325.539 209.688 323.906 217.025 322.891 224.583Z" fill="black"/>
<path d="M331.033 184.27C331.033 184.27 329.986 262.606 325.893 287.628C321.413 315.034 312.494 401.672 312.494 401.672H298.121C298.121 401.672 300.215 317.244 302.413 290.116C304.779 260.664 303.91 184.305 303.91 184.305L331.033 184.27Z" fill="#4122FF"/>
<path opacity="0.3" d="M331.033 184.27C331.033 184.27 329.986 262.606 325.893 287.628C321.413 315.034 312.494 401.672 312.494 401.672H298.121C298.121 401.672 300.215 317.244 302.413 290.116C304.779 260.664 303.91 184.305 303.91 184.305L331.033 184.27Z" fill="black"/>
<path d="M297.538 402.019H313.062L314.203 395.508L297.004 394.973L297.538 402.019Z" fill="#263238"/>
<path d="M321.186 402.02H336.711L337.862 395.508L320.715 395.845L321.186 402.02Z" fill="#263238"/>
<path d="M303.586 392.219C303.569 392.217 303.551 392.212 303.535 392.203C303.52 392.194 303.507 392.181 303.496 392.166C303.485 392.15 303.477 392.133 303.473 392.114C303.469 392.095 303.467 392.075 303.47 392.056C303.564 391.242 304.643 315.476 306.612 291.105C308.705 264.652 307.407 194.468 307.449 193.875C307.454 193.837 307.472 193.802 307.499 193.779C307.527 193.755 307.56 193.744 307.595 193.747C307.63 193.753 307.663 193.772 307.686 193.802C307.709 193.832 307.721 193.87 307.72 193.91C307.72 194.503 309.008 264.687 306.872 291.14C304.915 315.558 303.837 391.289 303.733 392.102C303.725 392.138 303.705 392.17 303.678 392.191C303.651 392.213 303.619 392.222 303.586 392.219Z" fill="#4122FF"/>
<path opacity="0.3" d="M303.586 392.219C303.569 392.217 303.551 392.212 303.535 392.203C303.52 392.194 303.507 392.181 303.496 392.166C303.485 392.15 303.477 392.133 303.473 392.114C303.469 392.095 303.467 392.075 303.47 392.056C303.564 391.242 304.643 315.476 306.612 291.105C308.705 264.652 307.407 194.468 307.449 193.875C307.454 193.837 307.472 193.802 307.499 193.779C307.527 193.755 307.56 193.744 307.595 193.747C307.63 193.753 307.663 193.772 307.686 193.802C307.709 193.832 307.721 193.87 307.72 193.91C307.72 194.503 309.008 264.687 306.872 291.14C304.915 315.558 303.837 391.289 303.733 392.102C303.725 392.138 303.705 392.17 303.678 392.191C303.651 392.213 303.619 392.222 303.586 392.219Z" fill="white"/>
<path d="M326.816 84.9128C326.722 85.5988 326.984 86.2267 327.402 86.3081C327.821 86.3895 328.219 85.8895 328.303 85.1453C328.386 84.4012 328.125 83.8198 327.716 83.7384C327.308 83.657 326.9 84.2151 326.816 84.9128Z" fill="#263238"/>
<path d="M334.07 85.8776C333.987 86.5752 334.248 87.1915 334.657 87.2729C335.065 87.3543 335.473 86.8543 335.557 86.1101C335.641 85.366 335.379 84.7846 334.971 84.7032C334.562 84.6218 334.154 85.1799 334.07 85.8776Z" fill="#263238"/>
<path d="M331.62 86.1211C332.11 88.3974 332.87 90.591 333.882 92.6442C333.398 92.8931 332.871 93.0221 332.338 93.0221C331.804 93.0221 331.277 92.8931 330.793 92.6442L331.62 86.1211Z" fill="#DE5753"/>
<path d="M329.526 95.5158C329.551 95.5208 329.575 95.5201 329.599 95.5139C329.623 95.5077 329.646 95.496 329.666 95.4796C329.685 95.4632 329.702 95.4425 329.714 95.4187C329.726 95.3949 329.733 95.3686 329.736 95.3414C329.739 95.2865 329.724 95.2321 329.693 95.1891C329.662 95.1461 329.617 95.1175 329.568 95.1089C328.772 95.0096 328.006 94.7084 327.331 94.2286C326.656 93.7488 326.089 93.1032 325.674 92.3415C325.664 92.3161 325.649 92.2932 325.631 92.2745C325.613 92.2557 325.591 92.2415 325.567 92.2327C325.543 92.224 325.518 92.2208 325.494 92.2236C325.469 92.2263 325.445 92.2348 325.423 92.2485C325.401 92.2597 325.382 92.2755 325.366 92.2951C325.35 92.3147 325.338 92.3377 325.33 92.3626C325.322 92.3875 325.319 92.4139 325.321 92.4402C325.322 92.4666 325.328 92.4923 325.339 92.5159C325.779 93.3428 326.387 94.0444 327.114 94.5651C327.841 95.0858 328.667 95.4113 329.526 95.5158Z" fill="#263238"/>
<path d="M324.899 79.8865C324.954 79.9039 325.012 79.9067 325.069 79.8946C325.125 79.8825 325.178 79.8558 325.223 79.8167C325.58 79.486 326.003 79.2553 326.457 79.144C326.91 79.0327 327.381 79.0441 327.83 79.1772C327.876 79.1955 327.925 79.2033 327.974 79.2002C328.022 79.1972 328.07 79.1834 328.114 79.1595C328.158 79.1357 328.197 79.1023 328.229 79.0615C328.261 79.0206 328.286 78.973 328.301 78.9214C328.328 78.8135 328.317 78.6982 328.27 78.5989C328.224 78.4996 328.145 78.4237 328.05 78.3865C327.484 78.2117 326.889 78.1912 326.315 78.3269C325.741 78.4625 325.205 78.7503 324.752 79.1656C324.713 79.1984 324.68 79.2401 324.655 79.2879C324.631 79.3358 324.616 79.3887 324.611 79.4434C324.606 79.4982 324.611 79.5534 324.627 79.6057C324.642 79.6579 324.667 79.7061 324.7 79.747C324.753 79.8142 324.822 79.8627 324.899 79.8865Z" fill="#263238"/>
<path d="M305.366 113.573L307.344 113.375C307.441 113.371 307.536 113.403 307.614 113.467C307.691 113.53 307.748 113.621 307.774 113.724C314.369 146.711 312.39 181.734 312.39 181.734H310.202C310.66 159.055 308.927 136.387 305.031 114.119C305.008 114.059 305 113.993 305.006 113.928C305.012 113.862 305.032 113.8 305.066 113.746C305.099 113.691 305.144 113.647 305.196 113.617C305.249 113.587 305.307 113.572 305.366 113.573Z" fill="#4122FF"/>
<path opacity="0.1" d="M305.366 113.573L307.344 113.375C307.441 113.371 307.536 113.403 307.614 113.467C307.691 113.53 307.748 113.621 307.774 113.724C314.369 146.711 312.39 181.734 312.39 181.734H310.202C310.66 159.055 308.927 136.387 305.031 114.119C305.008 114.059 305 113.993 305.006 113.928C305.012 113.862 305.032 113.8 305.066 113.746C305.099 113.691 305.144 113.647 305.196 113.617C305.249 113.587 305.307 113.572 305.366 113.573Z" fill="white"/>
<path d="M310.612 182.515H312.129C312.221 182.516 312.313 182.497 312.398 182.458C312.483 182.42 312.56 182.362 312.625 182.289C312.69 182.217 312.74 182.13 312.774 182.035C312.807 181.94 312.823 181.838 312.82 181.736C312.81 181.524 312.727 181.324 312.589 181.177C312.451 181.031 312.268 180.948 312.077 180.945H310.57C310.477 180.945 310.386 180.965 310.3 181.005C310.215 181.045 310.138 181.104 310.074 181.178C310.009 181.252 309.959 181.339 309.925 181.435C309.892 181.531 309.876 181.633 309.879 181.736C309.889 181.944 309.971 182.141 310.107 182.286C310.243 182.43 310.423 182.512 310.612 182.515Z" fill="#263238"/>
<path d="M312.368 184.573L312.295 182.364C312.284 182.088 312.178 181.828 311.998 181.637C311.819 181.447 311.58 181.34 311.332 181.34C311.212 181.339 311.093 181.364 310.982 181.416C310.871 181.467 310.771 181.543 310.688 181.639C310.604 181.734 310.54 181.848 310.497 181.973C310.455 182.098 310.436 182.231 310.442 182.364L310.515 184.573C310.526 184.847 310.631 185.105 310.808 185.296C310.985 185.486 311.221 185.593 311.468 185.596C311.588 185.596 311.707 185.57 311.817 185.518C311.928 185.466 312.029 185.39 312.113 185.295C312.197 185.2 312.263 185.087 312.307 184.963C312.351 184.839 312.371 184.706 312.368 184.573Z" fill="#263238"/>
<path d="M337.345 81.6908C337.4 81.7082 337.458 81.7082 337.513 81.6908C337.56 81.6763 337.604 81.6513 337.641 81.6173C337.679 81.5832 337.71 81.5409 337.733 81.493C337.756 81.445 337.769 81.3924 337.773 81.3384C337.776 81.2844 337.77 81.2302 337.754 81.1792C337.589 80.5373 337.291 79.9473 336.884 79.4566C336.476 78.9659 335.971 78.5881 335.409 78.3537C335.363 78.3378 335.314 78.3325 335.266 78.338C335.218 78.3436 335.172 78.3599 335.13 78.386C335.088 78.4121 335.051 78.4475 335.021 78.4899C334.992 78.5323 334.971 78.5809 334.959 78.6327C334.932 78.7406 334.945 78.8555 334.994 78.9532C335.043 79.0508 335.124 79.1236 335.22 79.156C335.662 79.3489 336.057 79.6531 336.375 80.0445C336.693 80.4359 336.925 80.9039 337.052 81.4117C337.072 81.4846 337.11 81.5497 337.162 81.5992C337.214 81.6487 337.277 81.6805 337.345 81.6908Z" fill="#263238"/>
<path d="M303.912 128.956C302.708 134.432 301.494 140.13 300.426 145.676C299.903 148.455 299.379 151.223 299.013 153.944C298.617 156.46 298.396 159.006 298.353 161.56C298.493 166.272 299.986 170.811 302.614 174.513C304.027 176.59 305.634 178.496 307.408 180.199C308.309 181.094 309.251 181.955 310.235 182.757C310.727 183.152 311.229 183.548 311.732 183.92C312.234 184.292 312.779 184.699 313.187 184.978L310.905 191.338C310.067 191.059 309.439 190.815 308.727 190.524C308.015 190.233 307.387 189.919 306.717 189.594C305.398 188.931 304.1 188.199 302.823 187.385C300.238 185.702 297.848 183.675 295.705 181.35C293.445 178.892 291.551 176.05 290.094 172.932C288.59 169.662 287.632 166.116 287.267 162.467C286.994 159.117 286.994 155.747 287.267 152.397C287.508 149.258 287.854 146.188 288.314 143.153C289.198 137.138 290.386 131.183 291.873 125.316L303.912 128.956Z" fill="#E4897B"/>
<path d="M299.17 115.155C290.847 116.806 286.137 141.515 286.137 141.515L306.717 149.654C307.671 143.432 307.671 137.075 306.717 130.852C305.231 120.364 307.073 113.585 299.17 115.155Z" fill="#4122FF"/>
<path opacity="0.6" d="M299.17 115.155C290.847 116.806 286.137 141.515 286.137 141.515L306.717 149.654C307.671 143.432 307.671 137.075 306.717 130.852C305.231 120.364 307.073 113.585 299.17 115.155Z" fill="white"/>
<path d="M338.697 114.018L340.675 114.425C340.758 114.441 340.833 114.486 340.892 114.552C340.95 114.619 340.988 114.705 341 114.797C346.234 147.796 342.769 181.737 342.769 181.737H340.571C342.664 145.819 338.906 118.75 338.257 114.495C338.245 114.428 338.248 114.359 338.266 114.295C338.284 114.23 338.317 114.171 338.36 114.124C338.404 114.076 338.458 114.042 338.517 114.023C338.575 114.005 338.637 114.003 338.697 114.018Z" fill="#4122FF"/>
<path opacity="0.1" d="M338.697 114.018L340.675 114.425C340.758 114.441 340.833 114.486 340.892 114.552C340.95 114.619 340.988 114.705 341 114.797C346.234 147.796 342.769 181.737 342.769 181.737H340.571C342.664 145.819 338.906 118.75 338.257 114.495C338.245 114.428 338.248 114.359 338.266 114.295C338.284 114.23 338.317 114.171 338.36 114.124C338.404 114.076 338.458 114.042 338.517 114.023C338.575 114.005 338.637 114.003 338.697 114.018Z" fill="white"/>
<path d="M340.96 182.515H342.478C342.665 182.515 342.844 182.433 342.977 182.287C343.111 182.141 343.187 181.943 343.19 181.736C343.19 181.528 343.116 181.329 342.985 181.181C342.854 181.033 342.675 180.948 342.488 180.945H340.97C340.782 180.948 340.603 181.032 340.47 181.18C340.337 181.327 340.261 181.527 340.258 181.736C340.257 181.838 340.274 181.94 340.309 182.036C340.344 182.131 340.395 182.217 340.461 182.29C340.526 182.363 340.604 182.42 340.69 182.459C340.775 182.497 340.867 182.516 340.96 182.515Z" fill="#263238"/>
<path d="M342.623 184.573V182.364C342.624 182.229 342.601 182.095 342.555 181.97C342.509 181.845 342.442 181.732 342.356 181.637C342.27 181.541 342.168 181.466 342.055 181.415C341.943 181.364 341.823 181.339 341.701 181.34C341.456 181.34 341.221 181.448 341.046 181.639C340.872 181.831 340.772 182.091 340.77 182.364V184.573C340.768 184.707 340.791 184.84 340.836 184.964C340.881 185.088 340.948 185.201 341.033 185.296C341.117 185.391 341.218 185.467 341.329 185.518C341.441 185.57 341.56 185.596 341.68 185.596C341.926 185.593 342.161 185.485 342.336 185.295C342.512 185.104 342.614 184.845 342.623 184.573Z" fill="#263238"/>
<path d="M311.594 414.021C312.116 414.161 312.667 414.098 313.153 413.845C313.311 413.739 313.44 413.588 313.529 413.409C313.617 413.229 313.661 413.027 313.656 412.822C313.669 412.702 313.652 412.58 313.608 412.47C313.564 412.359 313.493 412.264 313.405 412.194C312.599 411.555 309.877 412.822 309.573 412.973C309.54 412.988 309.513 413.014 309.494 413.047C309.475 413.081 309.466 413.12 309.469 413.159C309.47 413.2 309.482 413.241 309.502 413.275C309.522 413.31 309.551 413.338 309.584 413.357C310.231 413.654 310.905 413.877 311.594 414.021ZM312.955 412.439C313.04 412.449 313.123 412.479 313.195 412.531C313.23 412.561 313.256 412.6 313.27 412.646C313.285 412.691 313.288 412.741 313.279 412.788C313.283 412.927 313.255 413.063 313.196 413.186C313.137 413.308 313.05 413.412 312.944 413.486C312.013 413.776 311.016 413.658 310.16 413.159C311.039 412.717 311.989 412.473 312.955 412.439Z" fill="#4122FF"/>
<path d="M309.637 413.369H309.731C310.6 413.02 312.369 411.404 312.306 410.416C312.294 410.259 312.235 410.11 312.138 409.994C312.042 409.878 311.913 409.802 311.772 409.776C311.636 409.731 311.492 409.719 311.351 409.741C311.21 409.763 311.075 409.819 310.956 409.904C309.961 410.567 309.501 413.021 309.48 413.125C309.474 413.161 309.476 413.199 309.487 413.233C309.498 413.268 309.517 413.299 309.543 413.323C309.57 413.347 309.602 413.363 309.637 413.369ZM311.605 410.137H311.689C311.919 410.218 311.929 410.335 311.929 410.393C311.929 410.974 310.82 412.23 309.94 412.718C310.1 411.751 310.524 410.862 311.155 410.172C311.294 410.107 311.448 410.095 311.594 410.137H311.605Z" fill="#4122FF"/>
<path d="M306.969 189.701L309.377 184.84L315.982 185.096L321.122 187.421L324.619 193.142L315.637 192.538C315.637 192.538 310.131 194.27 306.969 189.701Z" fill="#E4897B"/>
<path d="M325.204 117.459L323.624 116.227L320.473 119.715L325.204 117.459Z" fill="#4122FF"/>
<path opacity="0.4" d="M325.204 117.459L323.624 116.227L320.473 119.715L325.204 117.459Z" fill="white"/>
<path d="M323.622 116.226C323.622 116.226 321.057 120.424 320.628 123.459C317.351 121.971 311.133 118.25 310.16 112.994C311.322 112.581 312.428 111.995 313.447 111.25C313.447 111.25 316.786 114.32 323.622 116.226Z" fill="#4122FF"/>
<path opacity="0.2" d="M323.622 116.226C323.622 116.226 321.057 120.424 320.628 123.459C317.351 121.971 311.133 118.25 310.16 112.994C311.322 112.581 312.428 111.995 313.447 111.25C313.447 111.25 316.786 114.32 323.622 116.226Z" fill="white"/>
<path d="M325.203 117.458L325.789 116.027L330.134 119.713L325.203 117.458Z" fill="#4122FF"/>
<path opacity="0.4" d="M325.203 117.458L325.789 116.027L330.134 119.713L325.203 117.458Z" fill="white"/>
<path d="M325.789 116.029C327.513 117.81 328.68 120.157 329.117 122.726C332.258 121.238 333.399 116.378 332.457 113.157C331.214 112.54 329.916 112.073 328.584 111.762C328.67 112.73 328.433 113.7 327.918 114.487C327.403 115.274 326.645 115.823 325.789 116.029Z" fill="#4122FF"/>
<path opacity="0.2" d="M325.789 116.029C327.513 117.81 328.68 120.157 329.117 122.726C332.258 121.238 333.399 116.378 332.457 113.157C331.214 112.54 329.916 112.073 328.584 111.762C328.67 112.73 328.433 113.7 327.918 114.487C327.403 115.274 326.645 115.823 325.789 116.029Z" fill="white"/>
<path d="M401.182 150.678L335.263 148.086L325.727 190.887L391.645 193.48L401.182 150.678Z" fill="#4122FF"/>
<path opacity="0.1" d="M401.182 150.678L335.263 148.086L325.727 190.887L391.645 193.48L401.182 150.678Z" fill="white"/>
<path d="M403.203 150.749L337.294 148.168L327.758 190.969L393.676 193.562L403.203 150.749Z" fill="#263238"/>
<path d="M393.675 193.562L393.403 195.934L327.484 193.341L327.757 190.969L393.675 193.562Z" fill="#263238"/>
<path d="M327.756 190.969L327.484 193.341L301.617 192.329L301.879 189.957L327.756 190.969Z" fill="#4122FF"/>
<path opacity="0.1" d="M327.756 190.969L327.484 193.341L301.617 192.329L301.879 189.957L327.756 190.969Z" fill="white"/>
</g>
</g>
</g>
<defs>
<clipPath id="clip0_16096_21247">
<rect width="524" height="434" fill="white" transform="translate(0.667969 0.742188)"/>
</clipPath>
<clipPath id="clip1_16096_21247">
<rect width="524" height="434" fill="white" transform="translate(0.667969 0.742188)"/>
</clipPath>
<clipPath id="clip2_16096_21247">
<rect width="524" height="434" fill="white" transform="translate(0.667969 0.742188)"/>
</clipPath>
</defs>
</svg>
