<svg width="541" height="511" viewBox="0 0 541 511" fill="none" xmlns="http://www.w3.org/2000/svg">
<g clip-path="url(#clip0_16096_22167)">
<g clip-path="url(#clip1_16096_22167)">
<g clip-path="url(#clip2_16096_22167)">
<path d="M271.055 558.36C448.378 558.36 592.126 476.599 592.126 375.742C592.126 274.885 448.378 193.125 271.055 193.125C93.733 193.125 -50.0156 274.885 -50.0156 375.742C-50.0156 476.599 93.733 558.36 271.055 558.36Z" fill="url(#paint0_linear_16096_22167)"/>
<path d="M474.724 460.725C517.128 460.725 551.504 439.173 551.504 412.587C551.504 386.001 517.128 364.449 474.724 364.449C432.321 364.449 397.945 386.001 397.945 412.587C397.945 439.173 432.321 460.725 474.724 460.725Z" fill="#7D65FF"/>
<path d="M-25.1836 348.133C-25.0246 350.319 -24.3518 352.436 -23.2199 354.314C-22.0879 356.191 -20.5289 357.774 -18.6695 358.935L163.53 464.086C165.543 465.109 167.77 465.643 170.029 465.643C172.287 465.643 174.514 465.109 176.528 464.086L425.78 320.179C427.74 319.138 429.379 317.584 430.523 315.682C431.666 313.781 432.271 311.603 432.271 309.384C432.271 307.165 431.666 304.988 430.523 303.087C429.379 301.185 427.74 299.631 425.78 298.59L243.611 193.409C241.595 192.392 239.369 191.863 237.111 191.863C234.854 191.863 232.628 192.392 230.612 193.409L-18.6695 337.346C-20.5277 338.504 -22.0862 340.085 -23.2181 341.959C-24.3501 343.834 -25.0235 345.949 -25.1836 348.133Z" fill="#37474F"/>
<path d="M170 451.593V465.652C167.742 465.716 165.505 465.201 163.501 464.158L-18.7432 358.932C-20.6477 357.929 -22.252 356.438 -23.3927 354.612C-24.5333 352.786 -25.1694 350.69 -25.2363 348.539C-25.3031 346.387 -24.7982 344.256 -23.773 342.362C-22.7479 340.469 -21.2392 338.882 -19.4006 337.762C-22.314 339.853 -22.0899 342.916 -18.7432 344.844L163.531 450.025C165.519 451.088 167.745 451.628 170 451.593Z" fill="#263238"/>
<path d="M-31.2793 337.569C-33.0888 336.338 -34.5834 334.698 -35.6423 332.783C-36.7012 330.867 -37.2948 328.73 -37.375 326.543V109.144C-37.2524 106.89 -36.6 104.696 -35.4708 102.741C-34.3415 100.787 -32.7673 99.1264 -30.8759 97.8944L218.376 -46.0127C220.312 -47.0398 222.462 -47.5966 224.652 -47.6381C226.843 -47.6796 229.013 -47.2047 230.986 -46.2518C232.795 -45.0207 234.29 -43.3812 235.349 -41.4658C236.408 -39.5505 237.001 -37.4128 237.082 -35.2257V182.173C236.959 184.427 236.307 186.62 235.177 188.575C234.048 190.53 232.474 192.191 230.582 193.423L-18.6695 337.345C-20.6073 338.366 -22.7576 338.918 -24.9477 338.957C-27.1378 338.996 -29.3064 338.52 -31.2793 337.569Z" fill="#455A64"/>
<path d="M-25.1836 116.198V333.581C-25.1836 337.735 -22.1955 339.408 -18.6695 337.346L230.582 193.425C232.474 192.193 234.048 190.532 235.177 188.577C236.307 186.622 236.959 184.429 237.082 182.175V-35.2244C237.082 -39.3628 234.168 -41.0511 230.582 -38.9744L-18.6695 104.932C-20.5657 106.165 -22.1441 107.827 -23.276 109.785C-24.408 111.742 -25.0616 113.94 -25.1836 116.198Z" fill="#37474F"/>
<path d="M-18.6706 344.846L163.529 450.026C165.544 451.043 167.77 451.573 170.028 451.573C172.285 451.573 174.511 451.043 176.527 450.026L425.779 306.12C429.379 304.043 429.379 300.681 425.779 298.65L243.609 193.469C241.594 192.452 239.368 191.922 237.11 191.922C234.853 191.922 232.627 192.452 230.611 193.469L-18.6706 337.345C-22.2712 339.407 -22.2712 342.769 -18.6706 344.846Z" fill="#455A64"/>
<path d="M-15.1754 117.001L225.142 -21.721C227.294 -22.9611 229.042 -21.9451 229.042 -19.465V168.785C228.967 170.138 228.575 171.454 227.898 172.627C227.22 173.8 226.276 174.797 225.142 175.538L-15.1754 314.186C-17.3417 315.426 -19.0898 314.425 -19.0898 311.93V123.68C-19.0066 122.338 -18.6089 121.034 -17.929 119.874C-17.249 118.714 -16.3057 117.73 -15.1754 117.001Z" fill="#FAFAFA"/>
<path d="M2.46992 339.214L233.838 205.616C234.844 205.101 235.958 204.832 237.088 204.832C238.218 204.832 239.331 205.101 240.337 205.616L252.17 212.444C252.559 212.58 252.895 212.834 253.133 213.17C253.371 213.506 253.499 213.907 253.499 214.319C253.499 214.731 253.371 215.132 253.133 215.468C252.895 215.804 252.559 216.058 252.17 216.194L20.7719 349.777C19.7662 350.292 18.6524 350.561 17.5224 350.561C16.3924 350.561 15.2786 350.292 14.2728 349.777L2.46992 342.964C2.08142 342.828 1.74483 342.574 1.50673 342.238C1.26853 341.902 1.14062 341.501 1.14062 341.089C1.14062 340.677 1.26853 340.276 1.50673 339.94C1.74483 339.604 2.08142 339.35 2.46992 339.214Z" fill="#37474F"/>
<path d="M32.9667 356.829L264.335 223.246C265.343 222.738 266.456 222.473 267.585 222.473C268.713 222.473 269.826 222.738 270.834 223.246L343.624 265.274C344.013 265.41 344.349 265.664 344.587 266C344.825 266.336 344.953 266.737 344.953 267.149C344.953 267.561 344.825 267.962 344.587 268.298C344.349 268.634 344.013 268.888 343.624 269.024L112.525 402.413C111.515 402.924 110.4 403.191 109.268 403.191C108.136 403.191 107.02 402.924 106.011 402.413L32.9817 360.579C32.5855 360.452 32.2398 360.202 31.994 359.867C31.7482 359.531 31.6149 359.126 31.6133 358.71C31.6116 358.293 31.7416 357.887 31.9848 357.55C32.2279 357.212 32.5716 356.96 32.9667 356.829Z" fill="#263238"/>
<path d="M240.368 283.306L247.599 279.138C247.913 278.958 247.898 278.66 247.599 278.465L239.218 273.625C239.04 273.533 238.843 273.485 238.643 273.485C238.443 273.485 238.245 273.533 238.067 273.625L230.821 277.808C230.508 277.972 230.522 278.271 230.821 278.465L239.188 283.306C239.37 283.4 239.573 283.45 239.778 283.45C239.983 283.45 240.186 283.4 240.368 283.306ZM226.07 266.692L218.809 270.906C218.495 271.085 218.525 271.384 218.809 271.578L227.176 276.404C227.356 276.495 227.556 276.543 227.759 276.543C227.961 276.543 228.161 276.495 228.341 276.404L235.587 272.22C235.886 272.041 235.871 271.742 235.587 271.548L227.206 266.722C227.03 266.633 226.835 266.586 226.638 266.586C226.441 266.586 226.246 266.633 226.07 266.722V266.692ZM202.659 280.318L190.407 287.385C190.094 287.564 190.109 287.863 190.407 288.057L198.774 292.898C198.955 292.986 199.155 293.032 199.357 293.032C199.559 293.032 199.758 292.986 199.939 292.898L212.191 285.831C212.504 285.652 212.474 285.353 212.191 285.159L203.869 280.318C203.682 280.219 203.475 280.167 203.264 280.167C203.053 280.167 202.845 280.219 202.659 280.318ZM215.477 272.848L208.231 277.031C207.933 277.21 207.947 277.509 208.231 277.703L216.613 282.544C216.792 282.632 216.989 282.678 217.188 282.678C217.388 282.678 217.584 282.632 217.763 282.544L225.009 278.361C225.308 278.182 225.293 277.883 225.009 277.703L216.628 272.848C216.45 272.756 216.253 272.708 216.053 272.708C215.853 272.708 215.655 272.756 215.477 272.848ZM187.091 289.282L179.844 293.451C179.546 293.63 179.561 293.929 179.844 294.123L188.226 298.964C188.404 299.055 188.601 299.103 188.801 299.103C189.001 299.103 189.199 299.055 189.376 298.964L196.623 294.78C196.921 294.616 196.906 294.317 196.623 294.123L188.211 289.282C188.033 289.191 187.836 289.143 187.636 289.143C187.436 289.143 187.239 289.191 187.061 289.282H187.091ZM176.498 295.393L169.267 299.576C168.953 299.741 168.968 300.039 169.267 300.234L177.648 305.074C177.827 305.163 178.024 305.209 178.223 305.209C178.423 305.209 178.62 305.163 178.799 305.074L186.045 300.891C186.358 300.712 186.329 300.413 186.045 300.219L177.678 295.378C177.493 295.276 177.286 295.222 177.075 295.219C176.864 295.217 176.655 295.266 176.468 295.363L176.498 295.393ZM209.456 315.055L216.703 310.871C217.001 310.692 216.986 310.393 216.703 310.199L208.321 305.373C208.143 305.281 207.946 305.234 207.746 305.234C207.546 305.234 207.348 305.281 207.171 305.373L199.924 309.557C199.611 309.736 199.641 310.035 199.924 310.229L208.291 315.055C208.47 315.137 208.665 315.177 208.862 315.172C209.059 315.167 209.252 315.116 209.427 315.025L209.456 315.055ZM198.864 321.165L206.11 316.982C206.424 316.803 206.394 316.504 206.11 316.31L197.743 311.484C197.563 311.392 197.363 311.344 197.16 311.344C196.958 311.344 196.758 311.392 196.578 311.484L189.332 315.667C189.033 315.846 189.048 316.145 189.332 316.339L197.713 321.18C197.892 321.257 198.085 321.293 198.279 321.285C198.472 321.277 198.662 321.226 198.834 321.135L198.864 321.165ZM188.271 327.276L195.517 323.093C195.831 322.913 195.816 322.615 195.517 322.435L187.15 317.595C186.972 317.503 186.775 317.455 186.575 317.455C186.375 317.455 186.178 317.503 186 317.595L178.754 321.778C178.44 321.957 178.455 322.256 178.754 322.45L187.135 327.291C187.312 327.365 187.502 327.4 187.693 327.392C187.884 327.384 188.071 327.334 188.241 327.246L188.271 327.276ZM177.693 333.387L184.939 329.203C185.238 329.039 185.223 328.74 184.939 328.546L176.483 323.645C176.305 323.554 176.108 323.506 175.908 323.506C175.707 323.506 175.51 323.554 175.332 323.645L168.086 327.814C167.773 327.993 167.802 328.292 168.086 328.486L176.453 333.327C176.637 333.431 176.843 333.488 177.054 333.493C177.265 333.498 177.474 333.452 177.663 333.357L177.693 333.387ZM229.805 289.492L237.052 285.308C237.35 285.129 237.335 284.83 237.052 284.636L228.67 279.795C228.491 279.707 228.294 279.661 228.095 279.661C227.895 279.661 227.698 279.707 227.519 279.795L220.273 283.978C219.975 284.158 219.989 284.457 220.273 284.636L228.655 289.477C228.831 289.558 229.023 289.599 229.217 289.596C229.411 289.593 229.602 289.548 229.775 289.462L229.805 289.492ZM220.034 308.914L236.2 299.576C236.514 299.397 236.484 299.098 236.2 298.919L215.821 287.176C215.641 287.084 215.441 287.036 215.238 287.036C215.036 287.036 214.836 287.084 214.656 287.176L206.304 292.001C205.99 292.181 206.005 292.48 206.304 292.674L217.061 298.889C217.405 299.083 217.42 299.382 217.061 299.546L210.383 303.416C210.069 303.595 210.084 303.894 210.383 304.088L218.764 308.914C218.953 309.022 219.167 309.078 219.384 309.078C219.602 309.078 219.815 309.022 220.004 308.914H220.034ZM165.92 301.444L158.674 305.627C158.36 305.806 158.39 306.105 158.674 306.285L167.04 311.125C167.221 311.217 167.421 311.265 167.623 311.265C167.826 311.265 168.025 311.217 168.206 311.125L175.437 306.942C175.751 306.763 175.736 306.464 175.437 306.27L167.055 301.429C166.871 301.345 166.67 301.306 166.467 301.313C166.265 301.321 166.067 301.376 165.89 301.474L165.92 301.444ZM155.327 307.555L148.081 311.738C147.782 311.917 147.797 312.216 148.081 312.41L156.463 317.236C156.64 317.328 156.838 317.376 157.038 317.376C157.238 317.376 157.435 317.328 157.613 317.236L164.859 313.053C165.158 312.873 165.143 312.575 164.859 312.38L156.478 307.555C156.293 307.462 156.089 307.417 155.884 307.422C155.678 307.427 155.476 307.483 155.297 307.584L155.327 307.555ZM102.423 376.101C102.602 376.19 102.799 376.236 102.998 376.236C103.198 376.236 103.394 376.19 103.573 376.101L110.819 371.918C111.133 371.739 111.118 371.44 110.819 371.261L102.453 366.42C102.271 366.332 102.072 366.286 101.87 366.286C101.668 366.286 101.469 366.332 101.287 366.42L94.056 370.603C93.742 370.783 93.757 371.081 94.056 371.276L102.423 376.101ZM70.6 356.514L63.354 360.698C63.055 360.877 63.07 361.176 63.354 361.37L71.735 366.196C71.913 366.288 72.11 366.335 72.31 366.335C72.51 366.335 72.708 366.288 72.886 366.196L80.132 362.013C80.43 361.833 80.416 361.534 80.132 361.34L71.75 356.514C71.572 356.423 71.375 356.375 71.175 356.375C70.975 356.375 70.778 356.423 70.6 356.514ZM87.647 370.857C87.826 370.946 88.022 370.992 88.222 370.992C88.421 370.992 88.618 370.946 88.797 370.857L96.043 366.674C96.342 366.495 96.327 366.196 96.043 366.002L87.662 361.161C87.484 361.069 87.287 361.021 87.086 361.021C86.886 361.021 86.689 361.069 86.511 361.161L79.265 365.344C78.966 365.524 78.981 365.807 79.265 366.002L87.647 370.857ZM121.084 379.822L128.33 375.638C128.643 375.474 128.614 375.175 128.33 374.981L119.963 370.14C119.782 370.048 119.583 370 119.38 370C119.178 370 118.978 370.048 118.798 370.14L111.552 374.309C111.253 374.488 111.268 374.787 111.552 374.981L119.933 379.822C120.11 379.916 120.306 379.966 120.506 379.969C120.707 379.971 120.904 379.926 121.084 379.837V379.822ZM109.34 385.917C109.522 386.006 109.721 386.052 109.923 386.052C110.125 386.052 110.324 386.006 110.506 385.917L117.737 381.734C118.051 381.555 118.036 381.256 117.737 381.062L109.355 376.221C109.177 376.129 108.98 376.081 108.78 376.081C108.58 376.081 108.383 376.129 108.205 376.221L100.929 380.419C100.615 380.584 100.63 380.882 100.929 381.077L109.34 385.917ZM81.192 350.359L73.946 354.542C73.633 354.722 73.648 355.02 73.946 355.2L82.313 360.04C82.491 360.132 82.688 360.18 82.888 360.18C83.088 360.18 83.286 360.132 83.463 360.04L90.71 355.857C91.023 355.678 91.008 355.379 90.71 355.185L82.328 350.344C82.149 350.263 81.953 350.223 81.757 350.228C81.56 350.234 81.367 350.283 81.192 350.374V350.359ZM134.127 319.791L126.88 323.974C126.567 324.153 126.597 324.452 126.88 324.646L135.247 329.472C135.428 329.564 135.627 329.612 135.83 329.612C136.032 329.612 136.232 329.564 136.412 329.472L143.659 325.289C143.957 325.11 143.942 324.811 143.659 324.617L135.277 319.791C135.098 319.701 134.9 319.656 134.7 319.659C134.5 319.661 134.303 319.712 134.127 319.806V319.791ZM91.815 344.263L84.569 348.447C84.27 348.626 84.285 348.925 84.569 349.104L92.951 353.945C93.128 354.036 93.326 354.084 93.526 354.084C93.726 354.084 93.923 354.036 94.101 353.945L101.347 349.761C101.661 349.582 101.631 349.283 101.347 349.089L92.98 344.248C92.798 344.162 92.598 344.119 92.396 344.121C92.194 344.124 91.995 344.172 91.815 344.263ZM144.749 313.695L137.518 317.878C137.204 318.058 137.219 318.356 137.518 318.551L145.9 323.376C146.078 323.468 146.275 323.516 146.475 323.516C146.675 323.516 146.872 323.468 147.05 323.376L154.296 319.193C154.61 319.014 154.595 318.715 154.296 318.521L145.93 313.695C145.741 313.593 145.531 313.54 145.317 313.54C145.103 313.54 144.892 313.593 144.704 313.695H144.749ZM123.579 325.916L116.332 330.1C116.034 330.279 116.049 330.578 116.332 330.772L124.684 335.598C124.863 335.686 125.06 335.732 125.259 335.732C125.459 335.732 125.656 335.686 125.835 335.598L133.081 331.414C133.394 331.235 133.365 330.936 133.081 330.757L124.684 325.946C124.509 325.85 124.313 325.797 124.113 325.792C123.912 325.786 123.714 325.829 123.534 325.916H123.579ZM113.001 332.027L105.755 336.21C105.441 336.39 105.456 336.688 105.755 336.883L114.136 341.723C114.314 341.815 114.511 341.863 114.711 341.863C114.912 341.863 115.109 341.815 115.287 341.723L122.533 337.54C122.847 337.361 122.832 337.062 122.533 336.883L114.151 332.042C113.968 331.944 113.763 331.892 113.555 331.889C113.347 331.886 113.142 331.934 112.956 332.027H113.001ZM102.408 338.153L95.162 342.336C94.848 342.5 94.878 342.799 95.162 342.993L103.528 347.834C103.709 347.926 103.909 347.974 104.111 347.974C104.314 347.974 104.513 347.926 104.694 347.834L111.94 343.666C112.239 343.486 112.224 343.188 111.94 342.993L103.558 338.153C103.375 338.053 103.169 338.001 102.961 338.001C102.752 338.001 102.547 338.053 102.363 338.153H102.408ZM156.522 345.623L163.768 341.44C164.082 341.26 164.067 340.961 163.768 340.767L155.387 335.926C155.208 335.838 155.011 335.792 154.812 335.792C154.612 335.792 154.415 335.838 154.236 335.926L146.99 340.11C146.677 340.289 146.691 340.588 146.99 340.767L155.372 345.608C155.545 345.69 155.735 345.731 155.926 345.729C156.118 345.726 156.307 345.68 156.478 345.593L156.522 345.623ZM249.512 253.246L242.266 257.429C241.967 257.608 241.982 257.907 242.266 258.087L250.647 262.927C250.825 263.019 251.022 263.067 251.223 263.067C251.423 263.067 251.62 263.019 251.798 262.927L259.044 258.744C259.358 258.565 259.328 258.266 259.044 258.072L250.677 253.231C250.491 253.133 250.284 253.08 250.074 253.078C249.864 253.075 249.656 253.123 249.467 253.216L249.512 253.246ZM236.693 260.641L229.462 264.825C229.148 265.004 229.163 265.303 229.462 265.497L237.843 270.323C238.021 270.415 238.218 270.462 238.419 270.462C238.619 270.462 238.816 270.415 238.994 270.323L246.24 266.14C246.554 265.96 246.539 265.661 246.24 265.467L237.873 260.641C237.688 260.535 237.478 260.476 237.264 260.471C237.051 260.466 236.839 260.514 236.648 260.612L236.693 260.641ZM260.105 247.195L252.859 251.378C252.545 251.543 252.575 251.841 252.859 252.036L261.225 256.876C261.407 256.965 261.606 257.011 261.808 257.011C262.01 257.011 262.209 256.965 262.391 256.876L269.637 252.693C269.935 252.514 269.921 252.215 269.637 252.021L261.255 247.18C261.078 247.069 260.876 247.004 260.667 246.991C260.458 246.978 260.249 247.017 260.06 247.105L260.105 247.195ZM205.303 303.7L212.549 299.517C212.848 299.337 212.833 299.038 212.549 298.844L204.168 294.018C203.99 293.927 203.792 293.879 203.592 293.879C203.392 293.879 203.195 293.927 203.017 294.018L195.771 298.202C195.472 298.381 195.487 298.68 195.771 298.874L204.153 303.7C204.331 303.771 204.524 303.799 204.716 303.784C204.907 303.768 205.093 303.709 205.258 303.61L205.303 303.7ZM271.848 241.099C271.667 241.007 271.468 240.96 271.265 240.96C271.063 240.96 270.863 241.007 270.683 241.099L263.451 245.268C263.138 245.447 263.153 245.746 263.451 245.94L271.833 250.781C272.011 250.872 272.208 250.92 272.408 250.92C272.608 250.92 272.805 250.872 272.983 250.781L280.229 246.597C280.543 246.433 280.528 246.134 280.229 245.94L271.848 241.099ZM167.115 339.557L174.361 335.389C174.675 335.209 174.645 334.911 174.361 334.716L165.995 329.876C165.814 329.784 165.614 329.736 165.412 329.736C165.209 329.736 165.01 329.784 164.829 329.876L157.553 333.954C157.254 334.119 157.269 334.417 157.553 334.612L165.935 339.452C166.11 339.544 166.303 339.593 166.501 339.596C166.698 339.598 166.893 339.554 167.07 339.467L167.115 339.557ZM296.948 264.601L304.194 260.417C304.508 260.238 304.478 259.939 304.194 259.76L295.827 254.919C295.647 254.827 295.447 254.78 295.245 254.78C295.042 254.78 294.842 254.827 294.662 254.919L287.431 259.103C287.117 259.282 287.132 259.581 287.431 259.775L295.812 264.616C295.991 264.679 296.181 264.702 296.369 264.684C296.558 264.666 296.74 264.607 296.903 264.511L296.948 264.601ZM274.403 263.809L281.649 259.625C281.948 259.446 281.933 259.147 281.649 258.953L273.267 254.127C273.089 254.036 272.892 253.988 272.692 253.988C272.492 253.988 272.295 254.036 272.117 254.127L264.871 258.311C264.557 258.49 264.587 258.789 264.871 258.983L273.237 263.809C273.419 263.88 273.614 263.909 273.808 263.893C274.002 263.878 274.19 263.818 274.358 263.719L274.403 263.809ZM283.815 248.017C283.635 247.925 283.435 247.877 283.232 247.877C283.03 247.877 282.83 247.925 282.65 248.017L275.419 252.2C275.105 252.379 275.12 252.678 275.419 252.872L283.8 257.698C283.978 257.79 284.175 257.838 284.375 257.838C284.576 257.838 284.773 257.79 284.951 257.698L292.197 253.515C292.511 253.336 292.496 253.037 292.197 252.842L283.815 248.017ZM286.041 246.717L306.39 258.475C306.569 258.563 306.766 258.609 306.965 258.609C307.165 258.609 307.362 258.563 307.541 258.475L314.787 254.292C315.086 254.112 315.071 253.814 314.787 253.634L294.438 241.876C294.259 241.788 294.062 241.742 293.863 241.742C293.663 241.742 293.466 241.788 293.287 241.876L286.041 246.06C285.653 246.149 285.668 246.448 286.041 246.627V246.717ZM261.479 260.163L254.233 264.347C253.934 264.526 253.949 264.825 254.233 265.019L262.615 269.845C262.793 269.936 262.99 269.984 263.19 269.984C263.39 269.984 263.587 269.936 263.765 269.845L271.011 265.661C271.325 265.482 271.295 265.183 271.011 264.989L262.645 260.163C262.462 260.057 262.256 259.997 262.045 259.989C261.834 259.982 261.624 260.026 261.434 260.119L261.479 260.163ZM181.757 306.12L174.511 310.304C174.197 310.483 174.227 310.782 174.511 310.976L182.877 315.817C183.058 315.908 183.257 315.956 183.46 315.956C183.663 315.956 183.862 315.908 184.043 315.817L191.274 311.633C191.588 311.454 191.573 311.17 191.274 310.976L182.952 306.15C182.77 306.05 182.566 305.995 182.358 305.99C182.15 305.984 181.944 306.029 181.757 306.12ZM285.16 270.607C285.34 270.699 285.54 270.746 285.742 270.746C285.945 270.746 286.145 270.699 286.325 270.607L293.571 266.423C293.87 266.259 293.855 265.96 293.571 265.766L285.145 260.895C284.966 260.807 284.769 260.761 284.57 260.761C284.37 260.761 284.173 260.807 283.994 260.895L276.748 265.079C276.435 265.258 276.464 265.557 276.748 265.751L285.16 270.607ZM192.335 300.01L185.103 304.193C184.79 304.372 184.805 304.671 185.103 304.865L193.485 309.706C193.664 309.794 193.861 309.84 194.06 309.84C194.26 309.84 194.457 309.794 194.635 309.706L201.882 305.523C202.195 305.343 202.18 305.045 201.882 304.865L193.515 300.025C193.334 299.928 193.132 299.876 192.927 299.873C192.721 299.871 192.518 299.918 192.335 300.01ZM112.986 369.961C113.165 370.049 113.361 370.095 113.561 370.095C113.76 370.095 113.957 370.049 114.136 369.961L121.382 365.778C121.681 365.598 121.666 365.299 121.382 365.12L113.001 360.279C112.823 360.188 112.626 360.14 112.426 360.14C112.225 360.14 112.028 360.188 111.85 360.279L104.604 364.463C104.305 364.642 104.32 364.941 104.604 365.135L112.986 369.961ZM97.059 355.02L89.813 359.189C89.499 359.368 89.514 359.667 89.813 359.861L98.18 364.702C98.36 364.794 98.56 364.842 98.762 364.842C98.965 364.842 99.165 364.794 99.345 364.702L106.576 360.518C106.89 360.354 106.875 360.055 106.576 359.861L98.21 355.02C98.032 354.929 97.835 354.881 97.634 354.881C97.434 354.881 97.237 354.929 97.059 355.02ZM124.684 363.985L131.915 359.801C132.229 359.622 132.214 359.323 131.915 359.129L123.534 354.303C123.356 354.212 123.159 354.164 122.959 354.164C122.758 354.164 122.561 354.212 122.383 354.303L115.137 358.487C114.823 358.666 114.838 358.965 115.137 359.159L123.504 363.985C123.686 364.079 123.889 364.128 124.094 364.128C124.299 364.128 124.502 364.079 124.684 363.985ZM135.262 357.874L142.508 353.691C142.822 353.511 142.792 353.213 142.508 353.018L134.142 348.193C133.961 348.101 133.761 348.053 133.559 348.053C133.356 348.053 133.157 348.101 132.976 348.193L125.73 352.376C125.431 352.555 125.446 352.854 125.73 353.048L134.112 357.874C134.3 357.964 134.508 358.006 134.717 357.996C134.926 357.985 135.128 357.923 135.307 357.814L135.262 357.874ZM145.855 351.763L153.101 347.58C153.4 347.401 153.385 347.102 153.101 346.908L144.719 342.067C144.54 341.979 144.344 341.933 144.144 341.933C143.945 341.933 143.748 341.979 143.569 342.067L136.323 346.25C136.009 346.43 136.039 346.728 136.323 346.908L144.689 351.748C144.879 351.841 145.089 351.885 145.3 351.878C145.511 351.87 145.717 351.81 145.9 351.704L145.855 351.763ZM107.592 348.97L100.346 353.153C100.047 353.332 100.062 353.631 100.346 353.825L108.728 358.666C108.907 358.754 109.103 358.8 109.303 358.8C109.502 358.8 109.699 358.754 109.878 358.666L117.124 354.483C117.438 354.303 117.408 354.004 117.124 353.825L108.758 348.984C108.588 348.891 108.399 348.836 108.206 348.823C108.012 348.81 107.818 348.84 107.637 348.91L107.592 348.97ZM118.185 342.859L110.939 347.042C110.625 347.221 110.655 347.52 110.939 347.714L119.306 352.555C119.487 352.644 119.686 352.69 119.888 352.69C120.09 352.69 120.289 352.644 120.471 352.555L127.717 348.372C128.016 348.193 128.001 347.894 127.717 347.714L119.335 342.874C119.169 342.778 118.983 342.721 118.791 342.708C118.6 342.695 118.408 342.726 118.23 342.799L118.185 342.859ZM160.541 318.356L153.31 322.54C152.996 322.719 153.011 323.018 153.31 323.197L161.692 328.038C161.87 328.13 162.067 328.177 162.267 328.177C162.467 328.177 162.664 328.13 162.842 328.038L170.088 323.855C170.402 323.675 170.387 323.376 170.088 323.182L161.722 318.342C161.537 318.253 161.334 318.208 161.13 318.211C160.925 318.213 160.724 318.263 160.541 318.356ZM149.963 324.467L142.717 328.65C142.404 328.83 142.433 329.129 142.717 329.308L151.084 334.149C151.264 334.24 151.464 334.288 151.667 334.288C151.869 334.288 152.069 334.24 152.249 334.149L159.495 329.965C159.794 329.786 159.779 329.487 159.495 329.293L151.114 324.452C150.938 324.371 150.746 324.33 150.552 324.333C150.358 324.335 150.167 324.381 149.993 324.467H149.963ZM171.134 312.246L163.888 316.429C163.589 316.594 163.604 316.892 163.888 317.087L172.27 321.927C172.447 322.019 172.645 322.067 172.845 322.067C173.045 322.067 173.242 322.019 173.42 321.927L180.666 317.759C180.965 317.58 180.95 317.281 180.666 317.087L172.285 312.246C172.111 312.159 171.919 312.114 171.724 312.114C171.53 312.114 171.338 312.159 171.164 312.246H171.134ZM128.793 336.688L121.547 340.872C121.233 341.051 121.248 341.35 121.547 341.544L129.928 346.37C130.106 346.462 130.303 346.509 130.504 346.509C130.704 346.509 130.901 346.462 131.079 346.37L138.325 342.187C138.639 342.007 138.624 341.708 138.325 341.514L129.943 336.688C129.769 336.602 129.577 336.556 129.383 336.556C129.189 336.556 128.997 336.602 128.823 336.688H128.793ZM139.371 330.578L132.125 334.761C131.826 334.94 131.841 335.239 132.125 335.433L140.506 340.259C140.684 340.351 140.881 340.399 141.081 340.399C141.281 340.399 141.479 340.351 141.657 340.259L148.903 336.076C149.216 335.897 149.187 335.598 148.903 335.404L140.521 330.578C140.347 330.491 140.155 330.446 139.961 330.446C139.766 330.446 139.575 330.491 139.401 330.578H139.371ZM131.646 373.726L138.893 369.543C139.191 369.363 139.176 369.064 138.893 368.885L130.496 363.985C130.318 363.893 130.121 363.845 129.921 363.845C129.721 363.845 129.523 363.893 129.346 363.985L122.099 368.168C121.786 368.347 121.816 368.646 122.099 368.84L130.466 373.681C130.65 373.784 130.855 373.841 131.066 373.849C131.276 373.857 131.485 373.815 131.676 373.726H131.646ZM69.509 367.451L61.142 362.625C60.962 362.533 60.762 362.485 60.56 362.485C60.357 362.485 60.157 362.533 59.977 362.625L52.731 366.808C52.432 366.988 52.447 367.287 52.731 367.481L61.112 372.307C61.29 372.398 61.488 372.446 61.688 372.446C61.888 372.446 62.085 372.398 62.263 372.307L69.509 368.123C69.897 367.944 69.868 367.645 69.539 367.451H69.509ZM85.3759 372.112L77.009 367.272C76.828 367.183 76.628 367.137 76.426 367.137C76.225 367.137 76.025 367.183 75.844 367.272L64.698 373.696C64.399 373.875 64.414 374.174 64.698 374.368L73.08 379.209C73.258 379.301 73.455 379.349 73.655 379.349C73.855 379.349 74.052 379.301 74.23 379.209L85.3759 372.785C85.839 372.605 85.734 372.307 85.406 372.112H85.3759ZM56.66 358.113L48.2935 353.272C48.113 353.181 47.9134 353.133 47.7109 353.133C47.5083 353.133 47.3087 353.181 47.1282 353.272L38.1639 358.427C37.8651 358.606 37.88 358.905 38.1639 359.084L46.5455 363.925C46.7234 364.017 46.9206 364.065 47.1207 364.065C47.3208 364.065 47.518 364.017 47.6959 363.925L56.66 358.77C57.049 358.591 57.019 358.292 56.69 358.113H56.66ZM63.503 354.154C63.681 354.246 63.878 354.293 64.078 354.293C64.278 354.293 64.475 354.246 64.653 354.154L71.899 349.971C72.198 349.791 72.183 349.492 71.899 349.298L63.503 344.562C63.325 344.47 63.128 344.423 62.928 344.423C62.728 344.423 62.53 344.47 62.353 344.562L55.106 348.745C54.808 348.925 54.823 349.224 55.106 349.418L63.503 354.154ZM100.167 377.431L91.815 372.575C91.637 372.484 91.44 372.436 91.24 372.436C91.04 372.436 90.843 372.484 90.665 372.575L76.725 380.613C76.426 380.793 76.441 381.092 76.725 381.286L85.107 386.112C85.285 386.203 85.482 386.251 85.682 386.251C85.882 386.251 86.079 386.203 86.257 386.112L100.182 378.074C100.511 377.909 100.496 377.61 100.167 377.431ZM107.114 387.232L98.733 382.391C98.554 382.303 98.357 382.257 98.157 382.257C97.958 382.257 97.761 382.303 97.582 382.391L88.618 387.531C88.319 387.71 88.334 388.009 88.618 388.203L96.999 393.044C97.178 393.132 97.375 393.178 97.575 393.178C97.774 393.178 97.971 393.132 98.15 393.044L107.114 387.904C107.458 387.71 107.443 387.411 107.114 387.217V387.232ZM142.239 308.705C142.421 308.793 142.62 308.839 142.822 308.839C143.024 308.839 143.223 308.793 143.405 308.705L150.651 304.522C150.95 304.342 150.935 304.044 150.651 303.864L142.269 299.023C142.091 298.932 141.894 298.884 141.694 298.884C141.494 298.884 141.297 298.932 141.119 299.023L133.873 303.207C133.559 303.386 133.589 303.685 133.873 303.879L142.239 308.705ZM121.069 320.926C121.249 321.018 121.449 321.066 121.651 321.066C121.854 321.066 122.053 321.018 122.234 320.926L129.465 316.743C129.779 316.579 129.764 316.28 129.465 316.086L121.084 311.245C120.905 311.157 120.708 311.111 120.508 311.111C120.309 311.111 120.112 311.157 119.933 311.245L112.732 315.428C112.418 315.607 112.433 315.906 112.732 316.1L121.069 320.926ZM74.111 348.028C74.291 348.12 74.491 348.168 74.693 348.168C74.896 348.168 75.096 348.12 75.276 348.028L82.507 343.845C82.821 343.666 82.806 343.367 82.507 343.173L74.126 338.347C73.948 338.255 73.751 338.207 73.55 338.207C73.35 338.207 73.153 338.255 72.975 338.347L65.729 342.53C65.415 342.709 65.445 343.008 65.729 343.202L74.111 348.028ZM131.661 314.816C131.84 314.904 132.037 314.95 132.237 314.95C132.436 314.95 132.633 314.904 132.812 314.816L140.058 310.632C140.372 310.453 140.342 310.154 140.058 309.975L131.691 305.134C131.511 305.042 131.311 304.994 131.109 304.994C130.906 304.994 130.706 305.042 130.526 305.134L123.28 309.318C122.981 309.497 122.996 309.796 123.28 309.99L131.661 314.816ZM110.491 327.037C110.669 327.129 110.866 327.176 111.066 327.176C111.266 327.176 111.463 327.129 111.641 327.037L118.887 322.869C119.186 322.689 119.171 322.39 118.887 322.196L110.506 317.355C110.328 317.264 110.131 317.216 109.93 317.216C109.73 317.216 109.533 317.264 109.355 317.355L102.109 321.539C101.81 321.703 101.825 322.002 102.109 322.196L110.491 327.037ZM112.941 387.994C112.76 387.902 112.561 387.854 112.358 387.854C112.156 387.854 111.956 387.902 111.776 387.994L100.63 394.433C100.331 394.613 100.346 394.911 100.63 395.091L109.012 399.931C109.189 400.023 109.387 400.071 109.587 400.071C109.787 400.071 109.984 400.023 110.162 399.931L121.308 393.492C121.606 393.313 121.592 393.014 121.308 392.82L112.941 387.994ZM95.296 335.807C95.475 335.895 95.672 335.941 95.871 335.941C96.071 335.941 96.268 335.895 96.447 335.807L103.693 331.624C103.992 331.444 103.977 331.146 103.693 330.951L95.311 326.111C95.132 326.022 94.935 325.976 94.736 325.976C94.5369 325.976 94.34 326.022 94.161 326.111L86.915 330.294C86.616 330.473 86.631 330.772 86.915 330.951L95.296 335.807ZM84.703 341.918C84.881 342.009 85.0789 342.057 85.2789 342.057C85.479 342.057 85.676 342.009 85.854 341.918L93.1 337.734C93.414 337.555 93.399 337.256 93.1 337.062L84.733 332.221C84.552 332.133 84.353 332.087 84.151 332.087C83.949 332.087 83.749 332.133 83.568 332.221L76.337 336.405C76.023 336.584 76.038 336.883 76.337 337.062L84.703 341.918ZM309.08 274.685C308.902 274.594 308.704 274.546 308.504 274.546C308.304 274.546 308.107 274.594 307.929 274.685L290.09 284.979C289.791 285.159 289.806 285.458 290.09 285.652L298.472 290.492C298.651 290.581 298.847 290.627 299.047 290.627C299.246 290.627 299.443 290.581 299.622 290.492L317.491 280.318C317.805 280.139 317.79 279.84 317.491 279.661L309.08 274.685ZM285.668 288.132C285.489 288.044 285.292 287.998 285.093 287.998C284.893 287.998 284.696 288.044 284.517 288.132L277.271 292.315C276.972 292.495 276.987 292.793 277.271 292.973L285.653 297.813C285.832 297.902 286.029 297.948 286.228 297.948C286.428 297.948 286.624 297.902 286.803 297.813L294.049 293.63C294.348 293.451 294.333 293.152 294.049 292.958L285.668 288.132ZM142.239 367.481L149.485 363.297C149.799 363.118 149.784 362.819 149.485 362.64L141.119 358.009C140.941 357.917 140.744 357.869 140.543 357.869C140.343 357.869 140.146 357.917 139.968 358.009L132.722 362.192C132.408 362.371 132.423 362.67 132.722 362.864L141.104 367.705C141.289 367.78 141.49 367.81 141.689 367.795C141.889 367.779 142.082 367.718 142.254 367.615L142.239 367.481ZM264.482 300.368C264.304 300.276 264.107 300.229 263.907 300.229C263.707 300.229 263.51 300.276 263.332 300.368L256.086 304.551C255.772 304.731 255.802 305.03 256.086 305.224L264.452 310.05C264.633 310.141 264.832 310.189 265.035 310.189C265.238 310.189 265.437 310.141 265.618 310.05L272.864 305.866C273.163 305.687 273.148 305.388 272.864 305.194L264.482 300.368ZM319.657 268.515C319.477 268.423 319.277 268.375 319.075 268.375C318.872 268.375 318.673 268.423 318.492 268.515L311.246 272.698C310.947 272.878 310.962 273.176 311.246 273.371L319.628 278.196C319.805 278.288 320.003 278.336 320.203 278.336C320.403 278.336 320.6 278.288 320.778 278.196L328.024 274.013C328.338 273.834 328.308 273.535 328.024 273.341L319.657 268.515ZM338.617 267.23L318.268 255.487C318.09 255.395 317.893 255.347 317.693 255.347C317.493 255.347 317.295 255.395 317.117 255.487L309.871 259.67C309.558 259.835 309.588 260.133 309.871 260.328L330.205 272.071C330.386 272.163 330.586 272.211 330.788 272.211C330.991 272.211 331.19 272.163 331.371 272.071L338.617 267.888C338.975 267.858 338.96 267.559 338.632 267.365L338.617 267.23ZM224.92 323.197C224.741 323.109 224.544 323.063 224.345 323.063C224.145 323.063 223.948 323.109 223.769 323.197L214.805 328.337C214.491 328.516 214.521 328.815 214.805 329.009L223.172 333.85C223.353 333.938 223.553 333.984 223.754 333.984C223.956 333.984 224.156 333.938 224.337 333.85L233.301 328.71C233.6 328.531 233.585 328.232 233.301 328.038L224.92 323.197ZM251.678 307.898C251.5 307.806 251.303 307.759 251.103 307.759C250.903 307.759 250.706 307.806 250.528 307.898L239.382 314.337C239.083 314.517 239.098 314.816 239.382 315.01L247.764 319.836C247.942 319.927 248.139 319.975 248.339 319.975C248.539 319.975 248.736 319.927 248.914 319.836L260.06 313.396C260.359 313.217 260.344 312.918 260.06 312.739L251.678 307.898ZM200.417 337.495C200.24 337.403 200.042 337.356 199.842 337.356C199.642 337.356 199.445 337.403 199.267 337.495L139.64 371.858C139.326 372.038 139.356 372.336 139.64 372.531L148.006 377.371C148.188 377.46 148.387 377.506 148.589 377.506C148.791 377.506 148.99 377.46 149.172 377.371L208.784 343.008C209.098 342.829 209.083 342.53 208.784 342.351L200.417 337.495ZM137.458 373.845C137.278 373.754 137.078 373.706 136.876 373.706C136.673 373.706 136.473 373.754 136.293 373.845L127.329 378.985C127.03 379.164 127.045 379.463 127.329 379.657L135.71 384.483C135.888 384.575 136.085 384.623 136.285 384.623C136.486 384.623 136.683 384.575 136.861 384.483L145.825 379.329C146.139 379.164 146.109 378.865 145.825 378.671L137.458 373.845ZM212.684 330.413C212.503 330.322 212.303 330.274 212.101 330.274C211.898 330.274 211.699 330.322 211.518 330.413L202.554 335.553C202.24 335.732 202.255 336.031 202.554 336.225L210.936 341.051C211.113 341.143 211.311 341.191 211.511 341.191C211.711 341.191 211.908 341.143 212.086 341.051L221.05 335.897C221.364 335.732 221.334 335.433 221.05 335.239L212.684 330.413ZM125.192 380.927C125.014 380.835 124.817 380.788 124.617 380.788C124.417 380.788 124.22 380.835 124.042 380.927L115.077 386.082C114.764 386.261 114.794 386.56 115.077 386.754L123.444 391.58C123.625 391.672 123.824 391.719 124.027 391.719C124.229 391.719 124.429 391.672 124.609 391.58L133.574 386.425C133.888 386.246 133.873 385.947 133.574 385.768L125.192 380.927ZM237.246 316.265C237.065 316.173 236.866 316.125 236.663 316.125C236.461 316.125 236.261 316.173 236.08 316.265L227.116 321.419C226.802 321.599 226.817 321.897 227.116 322.077L235.498 326.917C235.677 327.006 235.873 327.052 236.073 327.052C236.272 327.052 236.469 327.006 236.648 326.917L245.612 321.763C245.926 321.584 245.896 321.285 245.612 321.091L237.246 316.265ZM275.135 294.377C274.953 294.289 274.754 294.243 274.552 294.243C274.35 294.243 274.151 294.289 273.969 294.377L266.738 298.56C266.424 298.74 266.439 299.038 266.738 299.218L275.12 304.058C275.298 304.15 275.495 304.198 275.695 304.198C275.895 304.198 276.092 304.15 276.27 304.058L283.516 299.875C283.83 299.696 283.815 299.397 283.516 299.203L275.135 294.377ZM298.337 277.539L305.569 273.356C305.882 273.176 305.867 272.878 305.569 272.683L297.187 267.858C297.009 267.766 296.812 267.718 296.612 267.718C296.412 267.718 296.214 267.766 296.036 267.858L288.79 272.041C288.477 272.22 288.492 272.519 288.79 272.713L297.157 277.539C297.334 277.626 297.528 277.671 297.725 277.671C297.922 277.671 298.116 277.626 298.293 277.539H298.337ZM250.991 277.225L258.237 273.042C258.551 272.878 258.521 272.579 258.237 272.385L249.87 267.544C249.689 267.455 249.49 267.409 249.288 267.409C249.086 267.409 248.887 267.455 248.705 267.544L241.459 271.727C241.16 271.907 241.175 272.205 241.459 272.4L249.841 277.24C250.014 277.322 250.203 277.364 250.395 277.361C250.587 277.359 250.775 277.312 250.946 277.225H250.991ZM227.086 318.715L248.257 306.494C248.556 306.314 248.541 306.016 248.257 305.821L239.726 300.981C239.547 300.892 239.35 300.847 239.151 300.847C238.951 300.847 238.754 300.892 238.575 300.981L217.39 313.187C217.076 313.366 217.091 313.665 217.39 313.859L225.756 318.685C225.94 318.789 226.147 318.846 226.358 318.852C226.569 318.857 226.778 318.81 226.967 318.715H227.086ZM286.669 283.62C286.847 283.712 287.044 283.759 287.244 283.759C287.444 283.759 287.641 283.712 287.819 283.62L295.065 279.437C295.364 279.257 295.349 278.958 295.065 278.764L286.684 273.938C286.506 273.847 286.309 273.799 286.109 273.799C285.908 273.799 285.711 273.847 285.533 273.938L278.287 278.122C277.988 278.301 278.003 278.6 278.287 278.794L286.669 283.62ZM275.852 276.747L283.098 272.564C283.397 272.385 283.382 272.086 283.098 271.892L274.716 267.051C274.539 266.959 274.341 266.911 274.141 266.911C273.941 266.911 273.744 266.959 273.566 267.051L266.32 271.234C266.021 271.399 266.036 271.697 266.32 271.892L274.701 276.732C274.863 276.805 275.038 276.844 275.215 276.846C275.393 276.849 275.569 276.815 275.732 276.747H275.852ZM216.493 324.826L223.74 320.642C224.038 320.463 224.023 320.164 223.74 319.985L215.358 315.144C215.18 315.053 214.983 315.005 214.783 315.005C214.583 315.005 214.385 315.053 214.208 315.144L206.961 319.328C206.663 319.507 206.678 319.806 206.961 320L215.343 324.841C215.507 324.909 215.683 324.942 215.86 324.94C216.037 324.937 216.212 324.898 216.374 324.826H216.493ZM263.257 297.141C263.435 297.233 263.632 297.281 263.832 297.281C264.032 297.281 264.23 297.233 264.407 297.141L271.654 292.958C271.967 292.778 271.952 292.48 271.654 292.3L263.272 287.46C263.093 287.371 262.896 287.325 262.697 287.325C262.497 287.325 262.3 287.371 262.122 287.46L254.875 291.643C254.562 291.822 254.577 292.121 254.875 292.315L263.257 297.141ZM163.559 355.409L170.805 351.226C171.104 351.046 171.089 350.747 170.805 350.553L162.424 345.727C162.246 345.636 162.049 345.588 161.849 345.588C161.648 345.588 161.451 345.636 161.273 345.727L154.027 349.911C153.714 350.09 153.743 350.389 154.027 350.583L162.394 355.409C162.56 355.48 162.738 355.515 162.918 355.513C163.099 355.51 163.276 355.47 163.44 355.394L163.559 355.409ZM174.137 349.298L181.383 345.115C181.697 344.936 181.682 344.637 181.383 344.443L173.017 339.602C172.838 339.514 172.641 339.468 172.441 339.468C172.242 339.468 172.045 339.514 171.866 339.602L164.62 343.785C164.306 343.964 164.321 344.263 164.62 344.443L173.002 349.283C173.158 349.35 173.325 349.384 173.495 349.384C173.664 349.384 173.832 349.35 173.988 349.283L174.137 349.298ZM152.966 361.52L160.213 357.336C160.526 357.157 160.496 356.858 160.213 356.664L151.846 351.838C151.665 351.746 151.466 351.698 151.263 351.698C151.061 351.698 150.861 351.746 150.681 351.838L143.434 356.021C143.136 356.201 143.151 356.5 143.434 356.694L151.816 361.52C151.979 361.59 152.155 361.625 152.333 361.623C152.511 361.62 152.686 361.58 152.847 361.505L152.966 361.52ZM195.203 337.092L202.434 332.923C202.748 332.744 202.733 332.445 202.434 332.251L194.053 327.41C193.875 327.319 193.678 327.271 193.478 327.271C193.277 327.271 193.08 327.319 192.902 327.41L185.656 331.594C185.343 331.758 185.372 332.057 185.656 332.251L194.023 337.092C194.205 337.186 194.408 337.235 194.613 337.235C194.818 337.235 195.021 337.186 195.203 337.092ZM184.61 343.217L191.857 339.034C192.155 338.855 192.14 338.556 191.857 338.362L183.475 333.521C183.296 333.433 183.099 333.387 182.9 333.387C182.7 333.387 182.503 333.433 182.325 333.521L175.078 337.704C174.78 337.884 174.795 338.183 175.078 338.362L183.46 343.202C183.641 343.286 183.839 343.327 184.039 343.322C184.238 343.317 184.434 343.266 184.61 343.173V343.217ZM205.781 330.981L213.027 326.798C213.341 326.619 213.311 326.32 213.027 326.14L204.661 321.3C204.479 321.211 204.28 321.165 204.078 321.165C203.876 321.165 203.677 321.211 203.495 321.3L196.264 325.483C195.95 325.662 195.965 325.961 196.264 326.155L204.646 330.996C204.827 331.073 205.024 331.107 205.22 331.097C205.417 331.087 205.609 331.032 205.781 330.936V330.981ZM254.218 240.561C254.399 240.653 254.598 240.701 254.801 240.701C255.003 240.701 255.203 240.653 255.383 240.561L262.63 236.378C262.928 236.214 262.913 235.915 262.63 235.721L260.403 234.436C260.223 234.344 260.023 234.296 259.821 234.296C259.618 234.296 259.419 234.344 259.238 234.436L251.992 238.619C251.693 238.798 251.708 239.097 251.992 239.291L254.218 240.561ZM202.136 274.178C202.313 274.269 202.511 274.317 202.711 274.317C202.911 274.317 203.108 274.269 203.286 274.178L210.532 269.994C210.831 269.815 210.816 269.516 210.532 269.322L202.151 264.496C201.973 264.404 201.775 264.357 201.575 264.357C201.375 264.357 201.178 264.404 201 264.496L193.754 268.679C193.455 268.859 193.47 269.158 193.754 269.352L202.136 274.178ZM223.291 261.911C223.469 262.003 223.666 262.051 223.867 262.051C224.067 262.051 224.264 262.003 224.442 261.911L231.688 257.728C232.002 257.549 231.972 257.25 231.688 257.056L223.321 252.215C223.14 252.127 222.94 252.081 222.739 252.081C222.537 252.081 222.337 252.127 222.156 252.215L214.91 256.398C214.611 256.578 214.626 256.876 214.91 257.056L223.291 261.911ZM189.182 281.603C189.364 281.691 189.563 281.737 189.765 281.737C189.967 281.737 190.166 281.691 190.348 281.603L197.594 277.42C197.893 277.24 197.878 276.941 197.594 276.747L189.212 271.907C189.033 271.818 188.836 271.772 188.637 271.772C188.437 271.772 188.241 271.818 188.062 271.907L180.816 276.09C180.502 276.254 180.532 276.553 180.816 276.747L189.182 281.603ZM212.699 268.022C212.879 268.114 213.079 268.162 213.281 268.162C213.484 268.162 213.683 268.114 213.864 268.022L221.095 263.839C221.409 263.659 221.394 263.361 221.095 263.166L212.713 258.341C212.536 258.249 212.338 258.201 212.138 258.201C211.938 258.201 211.741 258.249 211.563 258.341L204.317 262.524C204.003 262.703 204.018 263.002 204.317 263.196L212.699 268.022ZM168.012 293.764C168.189 293.856 168.387 293.904 168.587 293.904C168.787 293.904 168.984 293.856 169.162 293.764L176.408 289.581C176.722 289.402 176.707 289.103 176.408 288.909L168.012 284.173C167.834 284.081 167.636 284.033 167.436 284.033C167.236 284.033 167.039 284.081 166.861 284.173L159.615 288.356C159.301 288.535 159.316 288.834 159.615 289.028L168.012 293.764ZM178.619 287.788C178.797 287.88 178.994 287.928 179.195 287.928C179.395 287.928 179.592 287.88 179.77 287.788L187.016 283.605C187.33 283.426 187.3 283.127 187.016 282.933L178.634 278.092C178.455 278.004 178.259 277.958 178.059 277.958C177.86 277.958 177.663 278.004 177.484 278.092L170.238 282.275C169.939 282.455 169.954 282.753 170.238 282.933L178.619 287.788ZM233.047 252.813C233.225 252.904 233.423 252.952 233.623 252.952C233.823 252.952 234.02 252.904 234.198 252.813L241.444 248.629C241.758 248.45 241.743 248.151 241.444 247.957L239.218 246.672C239.04 246.58 238.843 246.533 238.643 246.533C238.443 246.533 238.245 246.58 238.067 246.672L230.821 250.855C230.508 251.035 230.537 251.334 230.821 251.528L233.047 252.813ZM264.811 234.481C264.99 234.569 265.187 234.615 265.386 234.615C265.586 234.615 265.782 234.569 265.961 234.481L273.207 230.297C273.521 230.118 273.506 229.819 273.207 229.64L270.981 228.355C270.803 228.263 270.606 228.215 270.406 228.215C270.206 228.215 270.009 228.263 269.831 228.355L262.585 232.538C262.271 232.718 262.301 233.016 262.585 233.211L264.811 234.481ZM282.411 244.64C282.59 244.728 282.786 244.774 282.986 244.774C283.185 244.774 283.382 244.728 283.561 244.64L290.807 240.457C291.121 240.278 291.091 239.979 290.807 239.799L282.426 234.959C282.248 234.867 282.051 234.819 281.851 234.819C281.65 234.819 281.453 234.867 281.275 234.959L274.029 239.142C273.73 239.321 273.745 239.62 274.029 239.814L282.411 244.64ZM308.87 271.533L316.116 267.35C316.43 267.17 316.4 266.872 316.116 266.677L307.75 261.837C307.568 261.748 307.369 261.702 307.167 261.702C306.965 261.702 306.766 261.748 306.584 261.837L299.338 266.02C299.04 266.199 299.054 266.498 299.338 266.677L307.72 271.518C307.905 271.596 308.106 271.629 308.306 271.613C308.506 271.598 308.7 271.534 308.87 271.428V271.533ZM243.64 246.732C243.819 246.82 244.016 246.866 244.215 246.866C244.415 246.866 244.612 246.82 244.791 246.732L252.037 242.549C252.336 242.369 252.321 242.07 252.037 241.876L249.811 240.591C249.633 240.5 249.436 240.452 249.235 240.452C249.035 240.452 248.838 240.5 248.66 240.591L241.414 244.775C241.1 244.954 241.115 245.253 241.414 245.447L243.64 246.732ZM157.434 300.039C157.614 300.131 157.814 300.179 158.016 300.179C158.219 300.179 158.419 300.131 158.599 300.039L165.845 295.856C166.144 295.677 166.129 295.378 165.845 295.184L157.464 290.358C157.286 290.266 157.088 290.218 156.888 290.218C156.688 290.218 156.491 290.266 156.313 290.358L149.067 294.541C148.753 294.721 148.783 295.019 149.067 295.214L157.434 300.039Z" fill="#455A64"/>
<path d="M204.393 363.49L275.883 322.15C277.092 321.538 278.428 321.219 279.782 321.219C281.137 321.219 282.473 321.538 283.682 322.15L324.679 345.816C326.83 347.071 326.83 349.088 324.679 350.298L253.173 391.653C251.967 392.272 250.63 392.594 249.274 392.594C247.918 392.594 246.581 392.272 245.375 391.653L204.378 367.987C202.241 366.747 202.241 364.73 204.393 363.49Z" fill="#263238"/>
<path d="M220.018 -0.23669V10.6847L57.301 104.631C56.181 105.273 55.2699 104.75 55.2699 103.45L55.389 99.5359C54.4189 99.1489 53.42 98.8389 52.401 98.6099L3.66505 126.742C3.07155 127.132 2.57745 127.656 2.22205 128.27C1.86675 128.885 1.65995 129.574 1.61825 130.283V134.407C1.58405 135.116 1.38205 135.807 1.02885 136.422C0.67555 137.038 0.181149 137.561 -0.413651 137.948L-6.03125 141.19V130.283C-5.99715 129.574 -5.79515 128.884 -5.44185 128.268C-5.08865 127.653 -4.59425 127.13 -3.99935 126.742L217.986 -1.41699C219.107 -2.05949 220.018 -1.53659 220.018 -0.23669Z" fill="#4122FF"/>
<path d="M220.033 163.305C219.995 164.012 219.79 164.701 219.434 165.314C219.078 165.927 218.582 166.447 217.986 166.831L-3.99935 294.99C-5.11995 295.647 -6.03125 295.109 -6.03125 293.81V141.193L-0.413651 137.951C0.70685 137.308 2.57445 127.403 3.66505 126.745L52.401 98.6118C53.521 97.9698 56.181 105.276 57.301 104.589L220.018 10.6875V163.305H220.033Z" fill="#EBEBEB"/>
<path d="M3.66862 183.024L101.17 126.684C102.291 126.026 103.202 126.564 103.202 127.864V223.692C103.168 224.401 102.966 225.092 102.613 225.708C102.259 226.323 101.765 226.846 101.17 227.233L3.66862 283.574C2.54812 284.216 1.63672 283.693 1.63672 282.394V186.565C1.67082 185.856 1.87292 185.166 2.22612 184.55C2.57942 183.934 3.07382 183.412 3.66862 183.024Z" fill="#FAFAFA"/>
<path d="M3.66862 157.716L210.34 38.402C211.461 37.7446 212.372 38.2824 212.372 39.5823V53.9403C212.336 54.6463 212.133 55.3343 211.779 55.9473C211.426 56.5593 210.933 57.0803 210.34 57.4663L3.66862 176.795C2.54812 177.438 1.63672 176.915 1.63672 175.615V161.257C1.67082 160.548 1.87292 159.858 2.22612 159.242C2.57942 158.626 3.07382 158.103 3.66862 157.716Z" fill="#455A64"/>
<path d="M135.738 92.8453V96.6403C135.738 97.4313 136.291 97.7452 136.963 97.3572L197.039 62.6653V56.0312L136.963 90.7233C136.607 90.9563 136.311 91.2703 136.098 91.6383C135.886 92.0073 135.762 92.4203 135.738 92.8453Z" fill="#FAFAFA"/>
<path d="M203.478 52.3101C204.166 51.9217 204.704 52.3101 204.704 53.0119V56.8219C204.682 57.2479 204.56 57.6619 204.347 58.0309C204.134 58.3989 203.836 58.7119 203.478 58.9439L197.039 62.6639V56.0299L203.478 52.3101Z" fill="#4122FF"/>
<path d="M203.015 57.5234L202.283 57.2994C202.361 56.9964 202.401 56.6854 202.403 56.3734C202.43 56.0884 202.384 55.8024 202.269 55.5404C202.153 55.2794 201.973 55.0514 201.745 54.8794C201.587 54.7844 201.407 54.7344 201.222 54.7344C201.038 54.7344 200.857 54.7844 200.699 54.8794C200.231 55.2234 199.851 55.6734 199.592 56.1934C199.332 56.7124 199.199 57.2864 199.205 57.8674C199.181 58.1514 199.229 58.4374 199.343 58.6984C199.458 58.9594 199.637 59.1874 199.863 59.3614C200.005 59.4394 200.164 59.4804 200.326 59.4814C200.533 59.4744 200.734 59.4124 200.909 59.3014C201.445 58.9394 201.853 58.4164 202.074 57.8074L202.791 58.0314H202.866C202.922 58.0344 202.977 58.0184 203.023 57.9854C203.069 57.9534 203.103 57.9064 203.12 57.8524C203.144 57.7944 203.146 57.7294 203.127 57.6694C203.108 57.6094 203.068 57.5574 203.015 57.5234ZM200.699 58.8984C200.623 58.9444 200.535 58.9684 200.445 58.9684C200.356 58.9684 200.268 58.9444 200.191 58.8984C200.046 58.7624 199.935 58.5944 199.868 58.4074C199.8 58.2204 199.778 58.0194 199.803 57.8224C199.797 57.3414 199.898 56.8654 200.1 56.4284C200.301 55.9914 200.598 55.6054 200.968 55.2974C201.069 55.2384 201.181 55.2024 201.297 55.1934C201.355 55.1714 201.419 55.1714 201.476 55.1934C201.73 55.3274 201.865 55.7304 201.865 56.2534C201.897 56.7554 201.808 57.2584 201.605 57.7184C201.402 58.1784 201.091 58.5834 200.699 58.8984Z" fill="#FAFAFA"/>
<path d="M220.018 10.6875V23.9695L-6.03125 154.475V141.193L-1.83305 138.772C-0.71245 138.115 -0.338951 137.129 0.198849 135.231L1.61825 130.286C1.70065 129.588 1.92465 128.914 2.27655 128.305C2.62855 127.696 3.10095 127.165 3.66505 126.745L52.401 98.6118C52.618 98.4188 52.879 98.2808 53.161 98.2108C53.443 98.1408 53.7379 98.1408 54.0199 98.2098C54.3019 98.2788 54.563 98.4148 54.7809 98.6078C54.9989 98.7998 55.1659 99.0428 55.2699 99.3148L57.0179 102.482C57.6599 103.588 57.9739 104.245 59.0939 103.588L220.018 10.6875Z" fill="#E6E6E6"/>
<path d="M210.456 6.62297C211.95 5.80117 213.026 6.45857 213.026 8.11697C212.982 9.01407 212.727 9.88817 212.28 10.6673C211.833 11.4465 211.208 12.1086 210.456 12.5992C208.962 13.4209 207.871 12.7486 207.871 11.1051C207.912 10.2058 208.169 9.32947 208.618 8.54967C209.068 7.76977 209.698 7.10907 210.456 6.62297Z" fill="#455A64"/>
<path d="M201.195 11.955C202.614 11.1332 203.765 11.7906 203.765 13.449C203.721 14.3461 203.466 15.2202 203.019 15.9993C202.572 16.7785 201.947 17.4406 201.195 17.9311C199.701 18.7529 198.625 18.0806 198.625 16.4371C198.667 15.5397 198.922 14.6652 199.369 13.8859C199.816 13.1065 200.442 12.4446 201.195 11.955Z" fill="#455A64"/>
<path d="M191.917 17.3651C193.337 16.5434 194.487 17.2008 194.487 18.8592C194.444 19.7563 194.188 20.6304 193.742 21.4095C193.295 22.1887 192.67 22.8508 191.917 23.3413C190.423 24.1631 189.348 23.4907 189.348 21.8473C189.39 20.9499 189.645 20.0754 190.092 19.296C190.538 18.5167 191.164 17.8548 191.917 17.3651Z" fill="#455A64"/>
<path opacity="0.5" d="M3.33806 142.163L0.125857 144.001L1.35095 141.655C1.39805 141.568 1.42266 141.471 1.42266 141.372C1.42266 141.272 1.39805 141.175 1.35095 141.088C1.24635 140.968 1.08206 141.088 0.977457 141.252L-0.755644 144.599V144.718C-0.762944 144.778 -0.762944 144.838 -0.755644 144.897C-0.763744 144.942 -0.763744 144.987 -0.755644 145.032V145.107L0.977457 146.451C1.00516 146.466 1.03586 146.473 1.06716 146.473C1.09836 146.473 1.12906 146.466 1.15676 146.451C1.23906 146.382 1.30535 146.295 1.35095 146.197C1.40095 146.114 1.42745 146.018 1.42745 145.921C1.42745 145.824 1.40095 145.728 1.35095 145.644L0.125857 144.718L3.33806 142.866C3.41836 142.798 3.48266 142.713 3.52656 142.617C3.57046 142.522 3.59285 142.418 3.59205 142.313C3.66675 142.178 3.47256 142.074 3.33806 142.163Z" fill="#455A64"/>
<path opacity="0.5" d="M6.01181 140.608L9.22401 138.756L7.99891 137.814C7.89431 137.74 7.87941 137.486 7.99891 137.276C8.11841 137.067 8.25291 136.948 8.35751 137.022L10.1055 138.367C10.1139 138.417 10.1139 138.467 10.1055 138.517C10.1127 138.576 10.1127 138.636 10.1055 138.696C10.1094 138.736 10.1094 138.776 10.1055 138.815L8.35751 142.162C8.31901 142.239 8.26271 142.306 8.19311 142.356C8.16501 142.377 8.13091 142.388 8.09601 142.388C8.06111 142.388 8.02711 142.377 7.99891 142.356C7.95181 142.269 7.92721 142.171 7.92721 142.072C7.92721 141.973 7.95181 141.876 7.99891 141.788L9.22401 139.428L6.01181 141.37C5.86241 141.46 5.75781 141.37 5.75781 141.131C5.75841 141.03 5.78141 140.931 5.82541 140.841C5.86941 140.75 5.93311 140.671 6.01181 140.608Z" fill="#455A64"/>
<path opacity="0.5" d="M16.5312 131.377C16.5312 131.183 16.3369 131.213 16.2622 131.377L15.814 132.453C15.067 132.363 14.1556 133.095 13.5431 134.395C12.7512 136.083 12.7512 138.07 13.5431 138.877C13.7419 139.065 14.0006 139.177 14.2738 139.194C14.547 139.21 14.8172 139.13 15.0371 138.967C15.6971 138.545 16.217 137.936 16.5312 137.219C16.6357 136.995 16.6357 136.741 16.5312 136.651C16.4266 136.561 16.2622 136.651 16.1726 136.86C15.575 138.115 14.6785 138.668 14.0212 138.1C13.7207 137.602 13.5619 137.031 13.5619 136.449C13.5619 135.868 13.7207 135.297 14.0212 134.798C14.4395 133.902 15.052 133.304 15.5152 133.304L15.1865 134.111C15.0969 134.32 15.1865 134.529 15.306 134.44L16.6208 133.588C16.671 133.543 16.7105 133.488 16.7364 133.426C16.7622 133.364 16.7738 133.297 16.7702 133.23L16.5312 131.377Z" fill="#455A64"/>
<path opacity="0.5" d="M50.981 104.677L52.162 102.197C52.229 102.082 52.264 101.95 52.264 101.816C52.264 101.683 52.229 101.551 52.162 101.435C52.012 101.301 51.788 101.435 51.654 101.719L50.488 104.199L49.323 103.064C49.174 102.944 48.9644 103.064 48.815 103.363C48.7482 103.479 48.713 103.61 48.713 103.744C48.713 103.877 48.7482 104.009 48.815 104.125L49.98 105.26L48.815 107.725C48.7469 107.843 48.7109 107.977 48.7109 108.114C48.7109 108.25 48.7469 108.384 48.815 108.502C48.8524 108.528 48.8967 108.542 48.942 108.542C48.9874 108.542 49.0317 108.528 49.069 108.502C49.179 108.421 49.266 108.313 49.323 108.188L50.488 105.723L51.654 106.844C51.67 106.861 51.69 106.874 51.712 106.883C51.734 106.892 51.757 106.897 51.781 106.897C51.804 106.897 51.828 106.892 51.849 106.883C51.871 106.874 51.891 106.861 51.908 106.844C52.021 106.772 52.109 106.668 52.162 106.545C52.23 106.427 52.266 106.293 52.266 106.157C52.266 106.02 52.23 105.886 52.162 105.768L50.981 104.677Z" fill="#455A64"/>
<path d="M20.7891 134.422V130.284C20.8233 129.575 21.0253 128.884 21.3785 128.268C21.7318 127.653 22.2262 127.13 22.821 126.743L206.499 20.7548C207.62 20.1124 208.531 20.6353 208.531 21.9351V26.0737C208.497 26.7826 208.295 27.4733 207.942 28.0889C207.588 28.7045 207.094 29.2274 206.499 29.6145L22.821 135.602C21.7005 136.245 20.7891 135.722 20.7891 134.422Z" fill="#FAFAFA"/>
<path d="M205.362 22.9502L205.9 24.0857C205.924 24.1039 205.953 24.1138 205.982 24.1138C206.012 24.1138 206.041 24.1039 206.065 24.0857L207.275 23.6226C207.454 23.6226 207.544 23.8168 207.394 24.0708L206.528 25.6993C206.5 25.8021 206.5 25.9102 206.528 26.013L206.737 27.5071C206.737 27.7312 206.558 28.0449 206.393 28.03L205.318 27.8955C205.275 27.8935 205.233 27.9036 205.195 27.9248C205.158 27.946 205.128 27.9773 205.108 28.0151L204.033 29.3896C203.853 29.5988 203.659 29.5241 203.689 29.2551L203.898 27.5519C203.918 27.5151 203.928 27.4741 203.928 27.4324C203.928 27.3907 203.918 27.3497 203.898 27.3129L203.017 26.6854C202.882 26.5808 203.017 26.2222 203.151 26.0728L204.346 25.1614C204.434 25.0877 204.497 24.9885 204.526 24.8776L205.064 23.1295C204.974 22.9054 205.213 22.771 205.362 22.9502Z" stroke="#E0E0E0" stroke-width="0.75" stroke-miterlimit="10"/>
<g opacity="0.5">
<path d="M210.934 20.2618C210.81 20.2589 210.688 20.2245 210.581 20.1617C210.474 20.099 210.385 20.0101 210.321 19.9033C210.229 19.7385 210.206 19.5443 210.256 19.3625C210.307 19.1807 210.427 19.0261 210.59 18.9321L216.327 15.6153C216.487 15.5504 216.665 15.5451 216.828 15.6006C216.992 15.6561 217.129 15.7685 217.216 15.9174C217.304 16.0662 217.334 16.2414 217.303 16.411C217.271 16.5805 217.179 16.733 217.045 16.8405L211.337 20.1573C211.219 20.237 211.076 20.2739 210.934 20.2618Z" fill="#455A64"/>
<path d="M210.933 23.5782C210.809 23.5753 210.687 23.5409 210.58 23.4781C210.473 23.4154 210.384 23.3265 210.32 23.2197C210.275 23.1392 210.246 23.0507 210.235 22.9591C210.224 22.8675 210.232 22.7746 210.257 22.6858C210.282 22.5971 210.324 22.514 210.381 22.4416C210.438 22.3691 210.509 22.3086 210.589 22.2635L216.326 18.9318C216.486 18.8668 216.664 18.8615 216.827 18.917C216.991 18.9725 217.128 19.0849 217.215 19.2338C217.303 19.3826 217.333 19.5578 217.302 19.7274C217.27 19.8969 217.178 20.0494 217.044 20.1569L211.336 23.4886C211.213 23.5558 211.073 23.5869 210.933 23.5782Z" fill="#455A64"/>
<path d="M210.933 26.8938C210.778 26.8939 210.627 26.8424 210.504 26.7475C210.381 26.6525 210.293 26.5195 210.253 26.3692C210.214 26.2188 210.226 26.0597 210.286 25.9168C210.347 25.7738 210.454 25.655 210.589 25.579L216.326 22.2623C216.406 22.212 216.495 22.1787 216.588 22.1643C216.681 22.1499 216.776 22.1548 216.867 22.1786C216.958 22.2024 217.043 22.2447 217.117 22.3027C217.191 22.3608 217.253 22.4335 217.298 22.5162C217.391 22.6792 217.416 22.8721 217.369 23.0537C217.321 23.2352 217.205 23.3909 217.044 23.4874L211.336 26.8042C211.213 26.8714 211.073 26.9025 210.933 26.8938Z" fill="#455A64"/>
</g>
<path d="M48.3232 205.614C56.5259 197.262 58.6319 193.467 58.6319 190.121C58.6319 186.774 57.2279 184.667 52.8649 187.133C49.7839 188.854 47.476 191.686 46.4108 195.051C46.138 195.758 45.7087 196.394 45.1549 196.912C44.6012 197.429 43.9375 197.815 43.2135 198.039L37.5212 199.294C36.1616 199.608 35.2503 198.741 35.579 197.382C38.074 187.207 44.364 177.81 53.1939 172.715C63.8019 166.59 69.9869 171.221 69.9869 181.56C69.9869 191.495 64.7579 199.787 59.5289 205.748C58.5549 206.997 57.9859 208.515 57.8999 210.096V213.473C57.8579 214.23 57.6389 214.966 57.2599 215.622C56.8809 216.279 56.3529 216.837 55.7189 217.253L48.7266 221.287C47.5164 221.989 46.5453 221.421 46.5453 220.032V209.842C46.6513 208.274 47.2769 206.787 48.3232 205.614Z" fill="#455A64"/>
<path d="M46.4105 235.303C46.3954 233.228 46.9205 231.185 47.9343 229.375C48.9481 227.565 50.416 226.05 52.192 224.979C55.943 222.798 57.9 224.725 57.9 228.669C57.93 230.744 57.42 232.791 56.42 234.61C55.419 236.428 53.962 237.954 52.192 239.038C48.3528 241.249 46.4105 239.247 46.4105 235.303Z" fill="#455A64"/>
<path d="M278.078 -35.1072L272.595 -38.3045C272.064 -38.5601 271.473 -38.666 270.886 -38.6107C270.299 -38.5554 269.738 -38.3411 269.263 -37.9907L132.752 40.8053C131.388 41.6943 130.253 42.892 129.438 44.3014C128.623 45.7108 128.151 47.2924 128.061 48.918V245.25C128.008 245.821 128.103 246.395 128.336 246.918C128.569 247.441 128.932 247.896 129.391 248.238L134.919 251.436L269.204 169.114C270.566 168.224 271.699 167.026 272.511 165.616C273.324 164.207 273.793 162.626 273.88 161.001L278.078 -35.1072Z" fill="#4122FF"/>
<path opacity="0.15" d="M134.829 251.436L129.376 248.284C128.915 247.944 128.552 247.489 128.321 246.965C128.091 246.441 128.001 245.865 128.061 245.296V48.9182C128.123 47.1963 128.638 45.5213 129.555 44.0625L135.143 47.2448C134.221 48.7068 133.705 50.388 133.649 52.1154V248.463C133.583 249.018 133.657 249.58 133.863 250.099C134.069 250.618 134.401 251.078 134.829 251.436Z" fill="black"/>
<path d="M138.238 44.0176L274.749 -34.7935C277.334 -36.2875 279.426 -35.0773 279.426 -32.0892V164.243C279.339 165.868 278.87 167.449 278.057 168.858C277.245 170.268 276.111 171.466 274.749 172.356L138.238 251.167C135.654 252.661 133.547 251.451 133.547 248.463V52.1153C133.639 50.4923 134.112 48.9137 134.927 47.507C135.742 46.1004 136.876 44.9051 138.238 44.0176Z" fill="#4122FF"/>
<path opacity="0.4" d="M272.597 -38.3037L277.946 -35.211C277.427 -35.3979 276.872 -35.4574 276.326 -35.3846C275.78 -35.3118 275.259 -35.1088 274.808 -34.7927L138.297 44.0183C136.998 44.8202 135.916 45.9282 135.145 47.2454L129.602 44.0631C130.372 42.7372 131.454 41.6192 132.754 40.8061L269.191 -37.9153C269.666 -38.2648 270.227 -38.4774 270.815 -38.5301C271.402 -38.5827 271.993 -38.4735 272.522 -38.2141L272.597 -38.3037Z" fill="white"/>
<path d="M153.728 51.7262L263.047 -11.3973C265.004 -12.5328 266.588 -11.6065 266.588 -9.35037V158.596C266.521 159.825 266.166 161.022 265.551 162.089C264.936 163.155 264.078 164.062 263.047 164.736L153.728 227.74C151.771 228.861 150.172 227.949 150.172 225.693V57.8969C150.231 56.6589 150.584 55.4539 151.203 54.3809C151.821 53.3079 152.687 52.3979 153.728 51.7262Z" fill="white"/>
<path d="M240.355 88.7041L241.461 87.7931C239.636 85.8141 237.265 84.4201 234.648 83.7891L234.289 85.1631C236.609 85.7371 238.715 86.9661 240.355 88.7041Z" fill="#37474F"/>
<path d="M242.788 94.2797L240.532 92.0686C239.997 91.5116 239.699 90.7707 239.699 89.9997C239.699 89.2277 239.997 88.4867 240.532 87.9297C241.088 87.3957 241.83 87.0977 242.601 87.0977C243.372 87.0977 244.114 87.3957 244.67 87.9297L246.911 90.1407C247.445 90.6977 247.744 91.4387 247.744 92.2107C247.744 92.9817 247.445 93.7227 246.911 94.2797C246.356 94.8097 245.617 95.1047 244.849 95.1047C244.082 95.1047 243.343 94.8097 242.788 94.2797Z" fill="#4122FF"/>
<mask id="mask0_16096_22167" style="mask-type:luminance" maskUnits="userSpaceOnUse" x="150" y="-12" width="117" height="241">
<path d="M153.728 51.7262L263.047 -11.3973C265.004 -12.5328 266.588 -11.6065 266.588 -9.35037V158.596C266.521 159.825 266.166 161.022 265.551 162.089C264.936 163.155 264.078 164.062 263.047 164.736L153.728 227.74C151.771 228.861 150.172 227.949 150.172 225.693V57.8969C150.231 56.6589 150.584 55.4539 151.203 54.3809C151.821 53.3079 152.687 52.3979 153.728 51.7262Z" fill="white"/>
</mask>
<g mask="url(#mask0_16096_22167)">
<path d="M262.673 145.342L267.723 153.978C267.723 153.978 300.801 136.438 302.669 134.137C304.536 131.836 304.417 127.19 304.701 124.68C305.164 120.496 303.625 116.896 303.401 115.387C303.027 112.757 306.807 112.608 308.675 116.268C310.049 118.927 310.169 121.975 311.334 122.005C313.003 120.833 314.559 119.508 315.981 118.046C318.028 115.805 321.733 112.07 324.542 112.578C325.019 112.689 325.452 112.94 325.785 113.3C326.118 113.659 326.335 114.11 326.409 114.595C326.49 116.139 326.844 117.657 327.455 119.077C327.911 119.616 328.284 120.22 328.561 120.87C328.65 121.834 328.65 122.804 328.561 123.768C328.68 125.158 330.055 125.74 330.204 127.1C330.161 128.147 330.046 129.191 329.86 130.222C329.86 130.895 330.07 131.477 330.07 132.15C329.926 133.53 329.327 134.823 328.366 135.825C325.568 139.085 322.252 141.862 318.55 144.042C315.562 146.015 311.558 147.763 308.092 149.615C304.626 151.468 265.691 181.379 260.507 177.853C258.385 176.359 252.797 169.232 246.926 161.254" fill="#FFA8A7"/>
<path d="M245.701 162.286C239.732 153.976 234.244 145.332 229.266 136.394C223.29 119.66 230.058 108.515 230.058 108.515C230.058 108.515 238.649 105.855 245.805 117.15C248.958 122.126 257.205 136.11 262.613 145.343" fill="#FFA8A7"/>
<path d="M215.027 108.767C215.027 108.767 224.5 104.927 230.64 105.331C236.781 105.734 241.323 107.467 245.835 114.713C251.811 124.38 261.806 141.083 261.806 141.083C257.582 149.768 250.84 156.979 242.458 161.776L224.111 134.106L215.027 108.767Z" fill="#455A64"/>
<path d="M184.969 125.5C181.809 128.045 179.479 131.472 178.275 135.346C176.874 140.027 176.189 144.893 176.243 149.779V181.228L175.84 240.751C195.8 247.549 221.169 241.558 242.459 217.892C242.459 217.892 241.279 141.696 241.279 129.25C241.279 128.683 241.279 128.115 241.279 127.532C240.502 109.887 225.278 101.7 210.278 110.186L197.668 117.298L185.013 125.5H184.969Z" fill="#F0F0F0"/>
<path d="M191.914 53.1017C191.914 53.1017 182.128 52.3395 179.961 61.4237C177.974 69.5207 192.736 101.494 192.407 100.956C192.078 100.418 191.914 53.1017 191.914 53.1017Z" fill="#263238"/>
<path d="M226.473 34.814C226.473 34.814 222.842 25.0429 205.213 31.9902C196.248 35.5311 192.887 46.6319 192.887 46.6319L226.473 34.814Z" fill="#4122FF"/>
<path opacity="0.4" d="M226.473 34.814C226.473 34.814 222.842 25.0429 205.213 31.9902C196.248 35.5311 192.887 46.6319 192.887 46.6319L226.473 34.814Z" fill="black"/>
<path d="M198.641 60.7634C198.641 74.2104 208.053 82.5464 219.677 79.4244C231.301 76.3014 240.713 62.9894 240.713 49.5433C240.713 36.0969 230.688 36.0969 219.064 39.2344C207.441 42.3719 198.641 47.3471 198.641 60.7634Z" fill="#263238"/>
<path d="M187.656 82.0117C187.656 82.0117 190.749 97.9977 191.989 100.433C192.363 101.139 192.907 101.74 193.573 102.181C194.238 102.622 195.003 102.889 195.799 102.958L195.59 91.1847L187.656 82.0117Z" fill="#263238"/>
<path d="M191.544 56.8789C190.319 57.0779 189.151 57.5389 188.119 58.2299C187.088 58.9209 186.218 59.8259 185.568 60.8839C183.028 64.5739 184.448 73.6279 187.63 82.0089L193.457 81.2179L191.544 56.8789Z" fill="#263238"/>
<path d="M195.246 80.7545C194.066 81.8745 192.408 79.7235 190.959 78.3635C189.509 77.0045 184.803 75.8835 182.442 82.2335C180.082 88.5835 184.519 95.2165 188.239 95.5755C194.634 96.1725 195.59 91.1825 195.59 91.1825L195.799 118.478C206.541 129.863 225.337 116.447 216.88 111.412V103.299C219.815 103.046 222.709 102.444 225.501 101.506C230.207 99.3995 233.165 94.3355 234.6 88.0605C236.886 78.0055 237.752 70.1315 235.81 52.0984C233.688 32.3172 213.175 37.6061 202.104 48.6173C191.033 59.6285 195.246 80.7545 195.246 80.7545Z" fill="#FFA8A7"/>
<path d="M195.246 83.1009C194.649 83.2809 192.407 79.5899 190.958 78.4399C188.941 76.8559 191.541 56.9549 191.541 56.9549C189.21 51.8158 193.513 44.0617 198.01 40.9093C201.241 38.8349 204.887 37.4936 208.693 36.9799C211.92 36.4022 215.137 35.959 218.344 35.6502C222.266 35.4451 226.169 34.9759 230.028 34.2458C233.048 33.5293 235.976 32.4665 238.753 31.0785C241.203 29.9579 243.235 32.4829 241.069 36.6811C239.129 40.4993 236.435 43.8844 233.15 46.6315C223.618 53.7879 212.547 55.5059 202.911 56.5669C200.744 56.8059 200.266 59.3609 199.101 66.3079C198.07 72.3439 197.218 82.4589 195.246 83.1009Z" fill="#263238"/>
<path d="M184.207 57.0449L177.125 54.5499C178.126 51.9354 180.531 50.3816 182.474 51.0688C184.416 51.7561 185.208 54.4309 184.207 57.0449Z" fill="#263238"/>
<path d="M216.868 103.301C216.868 103.301 206.41 103.674 202.705 102.404C200.49 101.632 198.667 100.023 197.625 97.9219C198.131 100.131 199.115 102.201 200.509 103.988C203.198 107.23 216.868 106.483 216.868 106.483V103.301Z" fill="#F28F8F"/>
<path d="M214.328 72.6428C214.32 73.2938 214.116 73.9258 213.743 74.4588C213.369 74.9918 212.845 75.4008 212.237 75.6308C211.086 75.9298 210.145 75.0488 210.145 73.6588C210.135 72.9928 210.331 72.3408 210.705 71.7898C211.079 71.2398 211.614 70.8178 212.237 70.5808C213.402 70.3268 214.328 71.1488 214.328 72.6428Z" fill="#263238"/>
<path d="M210.965 63.4536L206.482 67.5326C206.168 66.7696 206.1 65.9276 206.287 65.1236C206.475 64.3206 206.909 63.5956 207.528 63.0506C207.75 62.7896 208.032 62.5866 208.351 62.4616C208.67 62.3356 209.014 62.2906 209.355 62.3306C209.695 62.3706 210.02 62.4946 210.301 62.6896C210.582 62.8856 210.81 63.1486 210.965 63.4536Z" fill="#263238"/>
<path d="M215.925 88.9727L220.721 89.7646C220.584 90.5266 220.182 91.2156 219.586 91.7106C218.99 92.2056 218.239 92.4736 217.464 92.4686C216.135 92.2596 215.447 90.6907 215.925 88.9727Z" fill="#F28F8F"/>
<path d="M233.644 59.5102L229.535 56.9552C230.387 55.4612 231.97 54.6702 233.106 55.3722C233.682 55.8792 234.054 56.5792 234.153 57.3402C234.252 58.1012 234.071 58.8722 233.644 59.5102Z" fill="#263238"/>
<path d="M231.85 67.2197C231.862 67.8897 231.666 68.5477 231.288 69.1007C230.911 69.6547 230.371 70.0787 229.744 70.3127C228.578 70.6117 227.637 69.7297 227.637 68.3407C227.627 67.6727 227.823 67.0177 228.201 66.4667C228.578 65.9157 229.117 65.4947 229.744 65.2627C230.909 64.9487 231.85 65.8307 231.85 67.2197Z" fill="#263238"/>
<path d="M221.453 68.0547L221.692 82.7257L229.237 78.7817L221.453 68.0547Z" fill="#F28F8F"/>
<path d="M153.355 214.576C159.242 154.067 168.759 132.568 183.669 126.547C188.675 130.461 189.481 148.315 183.819 161.717C183.819 161.717 171.359 201.847 170.372 215.503C169.744 228.274 170.218 241.076 171.792 253.765C171.872 254.528 172.111 255.265 172.495 255.929C172.878 256.593 173.397 257.169 174.018 257.62C177.2 259.801 176.916 262.849 179.157 265.792C180.92 268.093 182.594 268.541 182.146 269.378C181.773 270.215 181.125 270.899 180.31 271.318C179.495 271.736 178.561 271.864 177.663 271.679C176.234 271.183 174.912 270.423 173.764 269.438C174.607 272.659 175.937 275.732 177.708 278.551C181.742 285.08 181.443 289.398 171.553 290.608C165.352 291.37 160.945 287.426 158.211 271.873C157.434 267.391 155.522 259.323 154.79 253.526C152.668 236.987 152.399 224.317 153.355 214.576Z" fill="#FFA8A7"/>
<path d="M187.943 123.68C187.943 123.68 177.096 127.176 171.508 135.856C165.921 144.537 160.333 158.581 156.09 183.666C156.09 183.666 162.664 193.138 180.607 185.832C180.607 185.832 189.108 153.919 190.109 141.235C191.14 127.4 187.943 123.68 187.943 123.68Z" fill="#455A64"/>
<path d="M198.026 35.2903C187.881 41.64 183.504 49.3492 183.25 58.6419C183.161 65.0259 183.415 71.4099 184.012 77.7659C182.101 79.1419 180.525 80.9309 179.403 83.0009C178.28 85.0699 177.639 87.3669 177.527 89.7179C177.527 96.0079 182.622 99.7439 188.912 98.0549C192.068 97.1209 194.858 95.2319 196.897 92.6469C198.935 90.0629 200.123 86.9099 200.297 83.6229C200.426 81.5819 199.788 79.5669 198.508 77.9719C197.228 76.3779 195.399 75.3179 193.379 75.0019C192.109 66.1259 192.134 57.1129 193.454 48.2436C195.71 34.7972 220.84 27.0431 226.472 34.7972C224.784 28.1039 212.129 26.4007 198.026 35.2903Z" fill="#4122FF"/>
<path opacity="0.15" d="M198.026 35.2903C187.881 41.64 183.504 49.3492 183.25 58.6419C183.161 65.0259 183.415 71.4099 184.012 77.7659C182.101 79.1419 180.525 80.9309 179.403 83.0009C178.28 85.0699 177.639 87.3669 177.527 89.7179C177.527 96.0079 182.622 99.7439 188.912 98.0549C192.068 97.1209 194.858 95.2319 196.897 92.6469C198.935 90.0629 200.123 86.9099 200.297 83.6229C200.426 81.5819 199.788 79.5669 198.508 77.9719C197.228 76.3779 195.399 75.3179 193.379 75.0019C192.109 66.1259 192.134 57.1129 193.454 48.2436C195.71 34.7972 220.84 27.0431 226.472 34.7972C224.784 28.1039 212.129 26.4007 198.026 35.2903Z" fill="black"/>
<path d="M194.366 85.2072C194.398 84.5382 194.264 83.8722 193.975 83.2682C193.686 82.6642 193.252 82.1412 192.712 81.7452C192.172 81.3502 191.542 81.0952 190.879 81.0032C190.216 80.9112 189.54 80.9852 188.913 81.2182C187.4 81.6662 186.064 82.5722 185.088 83.8102C184.111 85.0492 183.542 86.5602 183.459 88.1352C183.437 88.8002 183.578 89.4612 183.872 90.0592C184.166 90.6572 184.602 91.1732 185.143 91.5612C185.684 91.9502 186.312 92.1992 186.972 92.2872C187.633 92.3752 188.304 92.2982 188.928 92.0642C190.429 91.6192 191.757 90.7212 192.73 89.4942C193.703 88.2672 194.274 86.7702 194.366 85.2072Z" fill="#4122FF"/>
</g>
<path d="M108.34 181.202C108.094 181.442 107.869 181.702 107.668 181.979C107.309 182.421 107.04 182.929 106.876 183.473C106.768 183.788 106.768 184.13 106.876 184.445C106.915 184.667 107.025 184.871 107.189 185.027C107.268 185.118 107.359 185.199 107.458 185.266L101.975 182.099C101.755 181.977 101.574 181.796 101.452 181.576C101.365 181.368 101.32 181.144 101.32 180.919C101.32 180.693 101.365 180.469 101.452 180.261C101.572 179.891 101.743 179.538 101.96 179.215C102.244 178.79 102.564 178.39 102.916 178.02L108.34 181.202Z" fill="#4122FF"/>
<path d="M108.387 181.142C105.534 184.13 106.535 186.147 110.628 185.624L133.547 182.979V154.996L108.387 181.142Z" fill="#4122FF"/>
<path d="M108.384 181.141C106.576 183.024 106.322 184.518 107.398 185.25L101.915 182.083C100.764 181.366 101.018 179.842 102.841 177.929L128.016 151.828L133.559 155.04L108.384 181.141Z" fill="#4122FF"/>
<path opacity="0.15" d="M108.34 181.202C108.094 181.442 107.869 181.702 107.668 181.979C107.321 182.429 107.053 182.934 106.876 183.473C106.788 183.791 106.788 184.127 106.876 184.445C106.919 184.666 107.029 184.869 107.189 185.027C107.268 185.118 107.359 185.199 107.458 185.266L101.975 182.099C101.755 181.977 101.574 181.796 101.452 181.576C101.365 181.368 101.32 181.144 101.32 180.919C101.32 180.693 101.365 180.469 101.452 180.261C101.578 179.893 101.749 179.542 101.96 179.215C102.244 178.79 102.564 178.39 102.916 178.02L108.34 181.202Z" fill="black"/>
<path opacity="0.4" d="M133.561 154.996L108.386 181.141L102.828 177.929L128.018 151.828L133.561 154.996Z" fill="white"/>
<path d="M262.676 145.344L267.725 153.979C267.725 153.979 300.804 136.439 302.671 134.138C304.539 131.837 304.419 127.191 304.703 124.681C305.166 120.498 303.627 116.897 303.403 115.388C302.955 112.176 307.572 112.923 309.036 114.193C309.997 115.217 310.798 116.38 311.411 117.644C312.129 118.839 313.473 122.739 314.848 122.978C315.923 123.172 318.06 121.648 318.941 120.991C322.572 118.242 324.813 114.432 327.607 110.951C328.104 110.202 328.796 109.603 329.609 109.218C330.322 109.076 331.059 109.097 331.763 109.281C332.467 109.465 333.12 109.806 333.673 110.278C334.851 110.937 335.87 111.844 336.661 112.938C337.143 113.757 337.487 114.651 337.677 115.582C339.171 121.917 335.914 127.266 332.074 132.017C328.22 136.69 323.652 140.723 318.538 143.969C315.55 145.941 311.546 147.689 308.08 149.542C304.613 151.395 267.471 182.516 262.272 178.99C256.057 174.154 250.488 168.541 245.703 162.286" fill="#FFA8A7"/>
<path d="M506.684 91.3633C518.636 91.3633 524.911 94.9493 529.871 105.99C534.622 116.553 549.369 147.196 548.637 154.621C547.904 162.047 517.62 193.661 517.62 193.661L508.97 183.202L527.735 151.678L509.253 124.935L506.684 91.3633Z" fill="#FFA8A7"/>
<path d="M477.669 416.516C477.669 416.516 479.014 420.595 479.746 424.181C480.328 427.019 481.15 431.756 480.149 433.892C479.148 436.029 475.279 437.403 469.272 437.358C465.373 437.358 459.307 439.973 455.154 442.304C451 444.634 441.931 445.65 437.389 445.112C432.041 444.485 426.498 441.377 425.631 439.136C424.765 436.895 424.033 433.892 438.525 429.246C438.644 429.246 456.05 423.538 462.146 416.8L477.669 416.516Z" fill="#263238"/>
<path d="M477.671 416.917L474.907 416.574L462.147 416.828C456.052 423.566 438.646 429.243 438.527 429.273L436.211 430.05C433.686 432.082 435.822 435.533 441.798 436.026C447.775 436.519 466.405 430.289 470.529 428.302C472.692 427.298 474.518 425.688 475.785 423.667C477.053 421.647 477.708 419.302 477.671 416.917Z" fill="#FFA8A7"/>
<path d="M477.666 411.434C477.666 411.434 477.666 414.915 477.666 416.917C477.666 418.919 475.336 421.877 469.24 421.653C464.967 421.504 461.979 420.353 462.143 416.827V411.792L477.666 411.434Z" fill="#FFA8A7"/>
<path d="M518.574 393.609C519.665 394.057 519.889 396.179 519.934 400.377C519.934 403.545 520.517 409.103 516.767 410.118C513.017 411.134 507.593 410.402 505.292 407.354C502.424 403.545 500.496 400.198 496.328 395.522C492.757 391.473 488.858 387.678 487.543 382.075C486.333 377.025 487.543 374.889 490.964 373.514C494.386 372.14 497.538 373.275 502.319 377.264C503.653 378.168 505.081 378.924 506.577 379.52C509.76 380.521 517.469 393.161 518.574 393.609Z" fill="#263238"/>
<path d="M518.68 389.726L518.53 394.88C518.53 394.88 515.094 401.618 505.517 394.88C505.308 394.372 504.441 384.422 504.441 384.422L518.68 389.726Z" fill="#FFA8A7"/>
<path d="M506.623 379.553C505.126 378.956 503.699 378.2 502.365 377.297C498.51 376.056 490.413 377.491 494.043 383.108C497.085 387.726 500.979 391.722 505.517 394.881C509.85 397.018 511.359 394.373 511.359 394.373L509.865 382.287C509.003 381.143 507.895 380.209 506.623 379.553Z" fill="#FFA8A7"/>
<path d="M525.671 318.49C523.759 301.592 520.098 291.836 520.098 291.836C520.098 291.836 523.34 269.097 525.88 247.298C531.856 196.097 527.882 195.276 520.651 177.467C520.651 177.467 455.017 169.025 452.268 196.322C448.847 230.311 450.401 296.229 450.969 308.286C451.536 320.342 452.463 325.796 456.108 351.045C458.827 370.274 461.412 412.301 461.412 412.301C470.018 417.261 478.295 411.435 478.295 411.435C478.295 411.435 486.527 359.755 486.333 345.846C486.165 335.55 484.658 325.319 481.851 315.412C481.851 315.412 487.438 260.013 488.858 251.168C488.858 251.168 490.441 268.843 491.024 280.9C491.607 292.957 494.864 304.535 497.747 326.991C500.242 346.414 504.396 387.097 504.396 387.097C513.001 392.057 519.007 389.816 519.007 389.816C519.007 389.816 527.568 335.373 525.671 318.49Z" fill="#FAA381"/>
<path d="M478.906 80.3084L481.312 105.826L503.722 104.407L501.93 76.1094L478.906 80.3084Z" fill="#FFA8A7"/>
<path d="M523.864 102.195C521.578 95.4423 516.946 91.4833 506.682 91.3633L502.902 91.4833C502.185 95.2483 491.144 98.2963 480.238 94.4713C478.744 94.8743 474.486 95.6513 472.11 95.9653L466.881 96.7273C458.948 99.3273 455.436 113.162 454.675 134.99C453.913 156.818 450.641 203.626 450.641 203.626C450.641 203.626 467.718 212.77 494.67 209.229C518.799 206.061 528.182 191.793 527.345 193.616C524.516 181.508 520.337 169.756 514.885 158.581C527.584 127.34 527.24 112.22 523.864 102.195Z" fill="#455A64"/>
<path d="M481.312 210.006C485.778 210.053 490.242 209.783 494.669 209.199C516.662 206.315 526.402 194.258 527.313 193.467C524.487 181.4 520.318 169.688 514.883 158.551C521.307 142.774 524.386 131.12 525.432 122.141C524.386 128.685 514.719 154.024 502.065 161.628C502.065 161.628 509.206 162.734 515.317 171.131C521.428 179.527 516.408 208.198 481.312 210.006Z" fill="#37474F"/>
<path d="M472.108 95.9375C461.575 97.2675 452.507 99.1495 448.667 109.489C443.602 123.569 435.831 136.521 425.793 147.617C419.249 154.624 392.386 168.041 386.335 167.04C380.284 166.039 374.831 157.418 371.723 159.211C368.616 161.004 375.429 167.159 375.055 168.683C374.682 170.207 363.775 167.04 358.621 163.379C353.466 159.719 350.403 170.222 357.126 178.081C363.85 185.94 376.43 186.552 390.115 183.818C403.801 181.084 428.811 172.956 438.746 163.693C451.774 151.517 454.15 144.897 459.797 134.41C477.786 120.455 472.108 95.9375 472.108 95.9375Z" fill="#FFA8A7"/>
<path d="M467.179 48.6192C467.179 48.6192 458.723 38.5344 465.356 28.7036C473.185 17.1097 486.96 13.1953 503.993 18.2452C512.419 20.7403 524.805 32.3939 525.432 48.7387C525.91 61.3334 490.591 69.6554 491.159 78.2914L467.179 48.6192Z" fill="#263238"/>
<path d="M462.34 52.3125C462.34 52.3125 457.38 59.7823 458.022 60.6193C459.186 61.3823 460.476 61.9343 461.832 62.2483L462.34 52.3125Z" fill="#F28F8F"/>
<path d="M477.443 28.5418C472.618 31.0368 464.281 35.6385 462.129 53.4179C459.933 71.6599 463.997 77.9949 466.477 80.3849C468.165 81.9989 476.831 82.5819 481.417 81.1769C487.08 79.4289 499.346 73.3779 505.068 63.9659C511.821 52.8799 513.211 38.1186 505.412 32.3217C494.371 24.1791 481.522 26.4351 477.443 28.5418Z" fill="#FFA8A7"/>
<path d="M476.026 29.3171C476.026 29.3171 471.813 45.9608 476.848 56.4784C476.848 56.4784 479.836 49.9797 485.379 51.8472C490.922 53.7143 490.488 61.2153 486.066 65.0393C484.938 66.1404 483.521 66.8983 481.979 67.2263C480.437 67.5543 478.834 67.4383 477.356 66.8923C477.356 66.8923 477.505 76.1104 485.379 79.7564C485.379 79.7564 501.813 87.6293 516.754 71.7333C530.2 57.3004 528.512 31.3937 508.626 24.8349C488.74 18.276 476.026 29.3171 476.026 29.3171Z" fill="#263238"/>
<path d="M542.929 99.5368C539.794 99.5368 536.689 98.9178 533.794 97.7158C530.899 96.5128 528.27 94.7509 526.057 92.5299C523.844 90.3089 522.092 87.6729 520.901 84.7729C519.709 81.8739 519.102 78.7668 519.113 75.6319V45.0938C525.426 45.0938 531.479 47.6013 535.943 52.0647C540.406 56.5279 542.914 62.5819 542.914 68.8939L542.929 99.5368Z" fill="#263238"/>
<path d="M463.205 21.8464C455.809 29.3167 455.391 51.1447 476.845 56.4939L490.904 17.9619C482.717 12.6282 469.808 15.0933 463.205 21.8464Z" fill="#263238"/>
<path d="M474.694 62.4257C474.157 62.2477 473.66 61.9627 473.234 61.5897C472.808 61.2157 472.462 60.7607 472.214 60.2507C471.967 59.7417 471.825 59.1867 471.795 58.6217C471.765 58.0557 471.849 57.4897 472.042 56.9567C472.234 56.4237 472.532 55.9357 472.916 55.5197C473.301 55.1037 473.765 54.7687 474.28 54.5347C474.796 54.3007 475.354 54.1727 475.92 54.1577C476.487 54.1427 477.05 54.2417 477.578 54.4477L474.694 62.4257Z" fill="#263238"/>
<path opacity="0.1" d="M488.891 251.197L492.461 228.353C499.654 227.492 506.575 225.086 512.751 221.301C512.751 221.301 508.269 228.039 496.466 230.848L492.82 257.307L491.326 285.022L488.891 251.197Z" fill="black"/>
</g>
</g>
</g>
<defs>
<linearGradient id="paint0_linear_16096_22167" x1="-50.0156" y1="375.742" x2="592.126" y2="375.742" gradientUnits="userSpaceOnUse">
<stop stop-color="#735AFF"/>
<stop offset="1" stop-color="#E2DFFF"/>
</linearGradient>
<clipPath id="clip0_16096_22167">
<rect width="540.54" height="509.44" fill="white" transform="translate(0.398438 0.640625)"/>
</clipPath>
<clipPath id="clip1_16096_22167">
<rect width="540.54" height="509.44" fill="white" transform="translate(0.398438 0.640625)"/>
</clipPath>
<clipPath id="clip2_16096_22167">
<rect width="643" height="606" fill="white" transform="translate(-50.832 -47.6406)"/>
</clipPath>
</defs>
</svg>
